G04*
G04 #@! TF.GenerationSoftware,Altium Limited,Altium Designer,22.2.1 (43)*
G04*
G04 Layer_Color=16711935*
%FSLAX25Y25*%
%MOIN*%
G70*
G04*
G04 #@! TF.SameCoordinates,848C5CEF-A0A5-40A2-882F-BA2EA4B76D18*
G04*
G04*
G04 #@! TF.FilePolarity,Negative*
G04*
G01*
G75*
%ADD10C,0.01000*%
%ADD12C,0.00800*%
%ADD13C,0.05701*%
%ADD14C,0.10642*%
%ADD15R,0.10642X0.10642*%
%ADD16R,0.10642X0.10642*%
%ADD17O,0.03359X0.04147*%
%ADD18O,0.09461X0.04934*%
%ADD19O,0.09461X0.07493*%
%ADD20R,0.09461X0.07493*%
%ADD72C,0.04339*%
%ADD73C,0.04737*%
%ADD74R,0.04300X0.03300*%
%ADD75R,0.03753X0.04343*%
%ADD76R,0.03300X0.04300*%
%ADD77R,0.14973X0.14973*%
%ADD78O,0.03753X0.01784*%
%ADD79O,0.01784X0.03753*%
%ADD80R,0.03556X0.05524*%
%ADD81R,0.05300X0.07800*%
%ADD82R,0.03950X0.03950*%
%ADD83R,0.04737X0.03556*%
%ADD84R,0.05524X0.04737*%
%ADD85R,0.05918X0.02454*%
%ADD86R,0.07800X0.05300*%
%ADD87R,0.05721X0.08674*%
%ADD88R,0.11800X0.05300*%
%ADD89R,0.05524X0.03556*%
%ADD90O,0.02375X0.05761*%
%ADD91R,0.04300X0.07300*%
%ADD92R,0.03556X0.04737*%
%ADD93R,0.03950X0.02572*%
%ADD94R,0.05300X0.11800*%
%ADD95R,0.09855X0.09855*%
%ADD96R,0.06312X0.05524*%
%ADD97R,0.03950X0.03359*%
%ADD98R,0.03950X0.02769*%
%ADD99R,0.28359X0.32296*%
%ADD100R,0.05131X0.05131*%
%ADD101R,0.06706X0.04343*%
%ADD102R,0.04343X0.06706*%
%ADD103C,0.02965*%
D10*
X-334646Y-216535D02*
G03*
X-312992Y-238189I21654J0D01*
G01*
X312992D02*
G03*
X334646Y-216535I0J21654D01*
G01*
Y216535D02*
G03*
X312992Y238189I-21654J0D01*
G01*
X-312992D02*
G03*
X-334646Y216535I0J-21654D01*
G01*
X-312992Y-238189D02*
X0Y-238189D01*
X-334646Y-216535D02*
X-334646Y0D01*
X334646D02*
X334646Y-216535D01*
X0Y-238189D02*
X312992Y-238189D01*
X0Y238189D02*
X312992Y238189D01*
X334646Y0D02*
X334646Y216535D01*
X-334646D02*
X-334646Y0D01*
X-312992Y238189D02*
X0Y238189D01*
D12*
X275590Y212598D02*
D03*
X-275590D02*
D03*
X275590Y-212598D02*
D03*
X-275590D02*
D03*
X238976Y12795D02*
D03*
Y-12795D02*
D03*
X216535Y-141142D02*
D03*
X147638Y-108661D02*
D03*
Y108661D02*
D03*
D13*
X295276Y-232283D02*
D03*
X-295276D02*
D03*
Y232283D02*
D03*
D14*
X252953Y-20000D02*
D03*
Y0D02*
D03*
X311024Y159291D02*
D03*
D15*
X252953Y20000D02*
D03*
D16*
X311024Y179291D02*
D03*
D17*
X272638Y-30315D02*
D03*
X276378D02*
D03*
X283661D02*
D03*
X280118D02*
D03*
X298228D02*
D03*
X294488D02*
D03*
X287205D02*
D03*
X298228Y-24803D02*
D03*
X294488D02*
D03*
X287205D02*
D03*
X290748D02*
D03*
X272638D02*
D03*
X276378D02*
D03*
X283661D02*
D03*
D18*
X293307Y-19961D02*
D03*
X277559D02*
D03*
Y-35157D02*
D03*
X293307D02*
D03*
D19*
X246063Y93898D02*
D03*
Y83898D02*
D03*
Y73898D02*
D03*
Y63898D02*
D03*
Y53898D02*
D03*
D20*
Y43898D02*
D03*
D72*
X286067Y212598D02*
G03*
X286067Y212598I-10476J0D01*
G01*
X-265114D02*
G03*
X-265114Y212598I-10476J0D01*
G01*
X286067Y-212598D02*
G03*
X286067Y-212598I-10476J0D01*
G01*
X-265114D02*
G03*
X-265114Y-212598I-10476J0D01*
G01*
D73*
X-5906Y19685D02*
D03*
X312500Y-7500D02*
D03*
X262989Y10024D02*
D03*
X312500Y99000D02*
D03*
X310039Y138780D02*
D03*
X312500Y-50500D02*
D03*
Y-38500D02*
D03*
Y-32500D02*
D03*
Y-44500D02*
D03*
X194346Y183071D02*
D03*
Y194882D02*
D03*
X312500Y-500D02*
D03*
X267500Y63000D02*
D03*
Y69000D02*
D03*
Y99000D02*
D03*
X267498Y105047D02*
D03*
X312500Y20500D02*
D03*
X130906Y209646D02*
D03*
X96457D02*
D03*
D74*
X-9449Y-212055D02*
D03*
Y-206055D02*
D03*
X-206299Y-212055D02*
D03*
Y-206055D02*
D03*
X-107874Y-212055D02*
D03*
Y-206055D02*
D03*
X156874Y193968D02*
D03*
Y199968D02*
D03*
X130905Y178968D02*
D03*
Y184968D02*
D03*
X122457Y193968D02*
D03*
Y199968D02*
D03*
X96488Y178968D02*
D03*
Y184968D02*
D03*
X275472Y63047D02*
D03*
Y69047D02*
D03*
X285472Y99047D02*
D03*
Y105047D02*
D03*
X275472Y99047D02*
D03*
Y105047D02*
D03*
X280472Y105047D02*
D03*
Y99047D02*
D03*
X283173Y-465D02*
D03*
Y5535D02*
D03*
X288173Y-465D02*
D03*
Y5535D02*
D03*
X293173Y5536D02*
D03*
Y-465D02*
D03*
X275590Y17472D02*
D03*
Y23472D02*
D03*
X278173Y5536D02*
D03*
Y-465D02*
D03*
X280472Y69047D02*
D03*
Y63047D02*
D03*
X285472Y63047D02*
D03*
Y69047D02*
D03*
X310472Y62047D02*
D03*
Y56047D02*
D03*
X41339Y25638D02*
D03*
Y19638D02*
D03*
X17717Y19638D02*
D03*
Y25638D02*
D03*
X210630Y-209693D02*
D03*
Y-203693D02*
D03*
X165945Y-183335D02*
D03*
Y-189335D02*
D03*
X126575Y-183335D02*
D03*
Y-189335D02*
D03*
X-316929Y57728D02*
D03*
Y63728D02*
D03*
Y18358D02*
D03*
Y24358D02*
D03*
Y136468D02*
D03*
Y142468D02*
D03*
Y97098D02*
D03*
Y103098D02*
D03*
Y175838D02*
D03*
Y181839D02*
D03*
Y-99752D02*
D03*
Y-93752D02*
D03*
Y-21012D02*
D03*
Y-15012D02*
D03*
Y-60382D02*
D03*
Y-54382D02*
D03*
X162244Y199732D02*
D03*
Y193732D02*
D03*
X-316929Y-139122D02*
D03*
Y-133122D02*
D03*
X76772Y-176134D02*
D03*
Y-182134D02*
D03*
X100394Y-176134D02*
D03*
Y-182134D02*
D03*
X-316929Y-178492D02*
D03*
Y-172492D02*
D03*
X263780Y-24559D02*
D03*
Y-30559D02*
D03*
X307087Y-30559D02*
D03*
Y-24559D02*
D03*
D75*
X-16732Y-212008D02*
D03*
X-22638D02*
D03*
X-16732Y-201378D02*
D03*
X-22638D02*
D03*
X-213583Y-212008D02*
D03*
X-219488D02*
D03*
X-213583Y-201378D02*
D03*
X-219488D02*
D03*
X-115157Y-212008D02*
D03*
X-121063D02*
D03*
X-115157Y-201378D02*
D03*
X-121063D02*
D03*
X203740Y-212008D02*
D03*
X197835D02*
D03*
X203740Y-201378D02*
D03*
X197835D02*
D03*
D76*
X8906Y-0D02*
D03*
X2906D02*
D03*
X244142Y121063D02*
D03*
X238142D02*
D03*
X244142Y130905D02*
D03*
X238142D02*
D03*
X306173Y-465D02*
D03*
X300173D02*
D03*
X203787Y-218504D02*
D03*
X197787D02*
D03*
X2905Y25591D02*
D03*
X8906D02*
D03*
X8906Y13779D02*
D03*
X2906D02*
D03*
X-50244Y3937D02*
D03*
X-44244D02*
D03*
X-11858Y13780D02*
D03*
X-5858D02*
D03*
X-50244Y11811D02*
D03*
X-44244D02*
D03*
X57161Y-10799D02*
D03*
X51161D02*
D03*
X286370Y133858D02*
D03*
X292370D02*
D03*
X156543Y-194882D02*
D03*
X150543D02*
D03*
X239673Y-143701D02*
D03*
X233673D02*
D03*
X168905Y194488D02*
D03*
X174905D02*
D03*
X168905Y199606D02*
D03*
X174905D02*
D03*
X-5858Y25591D02*
D03*
X-11858D02*
D03*
X8906Y7874D02*
D03*
X2906D02*
D03*
X2905Y19685D02*
D03*
X8906D02*
D03*
X-50244Y19685D02*
D03*
X-44244D02*
D03*
X-50244Y-3937D02*
D03*
X-44244D02*
D03*
X8906Y-7874D02*
D03*
X2906D02*
D03*
X-44244Y-11811D02*
D03*
X-50244D02*
D03*
X-44244Y-19685D02*
D03*
X-50244D02*
D03*
X-5858Y-13780D02*
D03*
X-11858D02*
D03*
X297197Y133858D02*
D03*
X303197D02*
D03*
X297197Y138780D02*
D03*
X303197D02*
D03*
X286370Y138780D02*
D03*
X292370D02*
D03*
D77*
X29528Y0D02*
D03*
D78*
X39173Y984D02*
D03*
Y4921D02*
D03*
Y6890D02*
D03*
Y-984D02*
D03*
Y-2953D02*
D03*
Y-4921D02*
D03*
Y-6890D02*
D03*
Y2953D02*
D03*
X19882Y984D02*
D03*
Y-2953D02*
D03*
Y6890D02*
D03*
Y4921D02*
D03*
Y2953D02*
D03*
Y-4921D02*
D03*
Y-6890D02*
D03*
Y-984D02*
D03*
D79*
X34449Y9646D02*
D03*
X32480D02*
D03*
X30512D02*
D03*
X36417D02*
D03*
X26575D02*
D03*
X24606D02*
D03*
X28543D02*
D03*
X22638D02*
D03*
X36417Y-9646D02*
D03*
X28543D02*
D03*
X26575D02*
D03*
X22638D02*
D03*
X32480D02*
D03*
X34449D02*
D03*
X30512D02*
D03*
X24606D02*
D03*
D80*
X253937Y130709D02*
D03*
X257677Y121260D02*
D03*
X250197D02*
D03*
Y130709D02*
D03*
X257677D02*
D03*
D81*
X245969Y112205D02*
D03*
X257968D02*
D03*
X245969Y139764D02*
D03*
X257968D02*
D03*
X292472Y70047D02*
D03*
X304472D02*
D03*
Y107047D02*
D03*
X292472D02*
D03*
X23555Y-20642D02*
D03*
X35555D02*
D03*
X230720Y-136811D02*
D03*
X242721D02*
D03*
D82*
X238189Y125984D02*
D03*
X244094D02*
D03*
D83*
X140150Y196968D02*
D03*
X149598Y200709D02*
D03*
Y193228D02*
D03*
X149598Y181968D02*
D03*
X140150Y178228D02*
D03*
Y185709D02*
D03*
X105732Y196968D02*
D03*
X115181Y200709D02*
D03*
Y193228D02*
D03*
X115181Y181968D02*
D03*
X105732Y178228D02*
D03*
Y185709D02*
D03*
X167150Y186709D02*
D03*
Y179228D02*
D03*
X176598Y182968D02*
D03*
X265748Y122047D02*
D03*
X275197Y125787D02*
D03*
Y118307D02*
D03*
X83858Y-179134D02*
D03*
X93307Y-175394D02*
D03*
Y-182874D02*
D03*
X275394Y135827D02*
D03*
X265945Y132087D02*
D03*
Y139567D02*
D03*
D84*
X130905Y190591D02*
D03*
Y203346D02*
D03*
X96488Y190591D02*
D03*
Y203346D02*
D03*
X284472Y42669D02*
D03*
Y55425D02*
D03*
X270173Y12913D02*
D03*
Y158D02*
D03*
X283000Y128378D02*
D03*
Y115622D02*
D03*
X112205Y-213071D02*
D03*
Y-200315D02*
D03*
D85*
X-324213Y-96752D02*
D03*
Y-93405D02*
D03*
Y-100098D02*
D03*
Y-103445D02*
D03*
Y-57382D02*
D03*
Y-54035D02*
D03*
Y-60728D02*
D03*
Y-64075D02*
D03*
Y-136122D02*
D03*
Y-132776D02*
D03*
Y-139469D02*
D03*
Y-142815D02*
D03*
Y-175492D02*
D03*
Y-172146D02*
D03*
Y-178839D02*
D03*
Y-182185D02*
D03*
Y60728D02*
D03*
Y64075D02*
D03*
Y57382D02*
D03*
Y54035D02*
D03*
Y21358D02*
D03*
Y24705D02*
D03*
Y18012D02*
D03*
Y14665D02*
D03*
Y178839D02*
D03*
Y182185D02*
D03*
Y175492D02*
D03*
Y172146D02*
D03*
Y139469D02*
D03*
Y142815D02*
D03*
Y136122D02*
D03*
Y132776D02*
D03*
Y100098D02*
D03*
Y103445D02*
D03*
Y96752D02*
D03*
Y93405D02*
D03*
Y-18012D02*
D03*
Y-14665D02*
D03*
Y-21358D02*
D03*
Y-24705D02*
D03*
D86*
X292472Y128047D02*
D03*
Y116047D02*
D03*
X284472Y79047D02*
D03*
Y91047D02*
D03*
X185488Y182976D02*
D03*
Y194976D02*
D03*
D87*
X293453Y46047D02*
D03*
X303492D02*
D03*
X293453Y82047D02*
D03*
X303492D02*
D03*
D88*
X272472Y79047D02*
D03*
Y91047D02*
D03*
Y43047D02*
D03*
Y55047D02*
D03*
X303472Y128047D02*
D03*
Y116047D02*
D03*
D89*
X303197Y95047D02*
D03*
X293748Y91307D02*
D03*
Y98787D02*
D03*
X303197D02*
D03*
Y91307D02*
D03*
X293748Y62787D02*
D03*
Y55307D02*
D03*
X303197D02*
D03*
Y59047D02*
D03*
Y62787D02*
D03*
X293748Y59047D02*
D03*
D90*
X286961Y11874D02*
D03*
X281842D02*
D03*
X284402D02*
D03*
X289520D02*
D03*
Y29197D02*
D03*
X286961D02*
D03*
X284402D02*
D03*
X281842D02*
D03*
D91*
X-4858Y5906D02*
D03*
X-12858D02*
D03*
X-4858Y-5906D02*
D03*
X-12858D02*
D03*
D92*
X203740Y-191732D02*
D03*
X200000Y-182283D02*
D03*
X207480D02*
D03*
X126575Y-218504D02*
D03*
X141142D02*
D03*
Y-194882D02*
D03*
X126575D02*
D03*
X165945Y-218504D02*
D03*
X180512D02*
D03*
Y-194882D02*
D03*
X165945D02*
D03*
X303173Y15260D02*
D03*
X306913Y5811D02*
D03*
X299433D02*
D03*
D93*
X287205Y-44685D02*
D03*
Y-49803D02*
D03*
X295473Y-47245D02*
D03*
Y-44685D02*
D03*
Y-49803D02*
D03*
X287205Y-47243D02*
D03*
D94*
X230720Y-125984D02*
D03*
X242721D02*
D03*
D95*
X102559Y-192717D02*
D03*
Y-220669D02*
D03*
X74606Y-192717D02*
D03*
Y-220669D02*
D03*
D96*
X34252Y26378D02*
D03*
Y18898D02*
D03*
X24803Y26378D02*
D03*
Y18898D02*
D03*
D97*
X56917Y5047D02*
D03*
Y-4992D02*
D03*
X51406Y5047D02*
D03*
Y-4992D02*
D03*
D98*
X56917Y-1547D02*
D03*
Y1602D02*
D03*
X51406Y-1547D02*
D03*
Y1602D02*
D03*
D99*
X185236Y154921D02*
D03*
X110039D02*
D03*
X185236Y-154921D02*
D03*
X110039D02*
D03*
D100*
X280748Y-117913D02*
D03*
X274843D02*
D03*
X286654D02*
D03*
X274843Y-112008D02*
D03*
X280748D02*
D03*
X286654D02*
D03*
X274843Y-123819D02*
D03*
X280748D02*
D03*
X286654D02*
D03*
D101*
X250984Y-149606D02*
D03*
Y-143701D02*
D03*
Y-137795D02*
D03*
Y-131890D02*
D03*
Y-125984D02*
D03*
Y-120079D02*
D03*
Y-114173D02*
D03*
Y-108268D02*
D03*
Y-102362D02*
D03*
Y-96457D02*
D03*
Y-90551D02*
D03*
Y-84646D02*
D03*
Y-78740D02*
D03*
Y-72835D02*
D03*
Y-66929D02*
D03*
Y-61024D02*
D03*
X319882Y-149606D02*
D03*
Y-143701D02*
D03*
Y-137795D02*
D03*
Y-131890D02*
D03*
Y-125984D02*
D03*
Y-120079D02*
D03*
Y-114173D02*
D03*
Y-108268D02*
D03*
Y-102362D02*
D03*
Y-96457D02*
D03*
Y-90551D02*
D03*
Y-84646D02*
D03*
Y-78740D02*
D03*
Y-72835D02*
D03*
Y-66929D02*
D03*
Y-61024D02*
D03*
D102*
X258858Y-58071D02*
D03*
X264764D02*
D03*
X270669D02*
D03*
X276575D02*
D03*
X282480D02*
D03*
X300197D02*
D03*
X306102D02*
D03*
X312008D02*
D03*
X288386D02*
D03*
X294291D02*
D03*
D103*
X280748Y-120866D02*
D03*
X274843D02*
D03*
X286654D02*
D03*
X274843Y-114961D02*
D03*
X280748D02*
D03*
X286654D02*
D03*
X277795Y-123819D02*
D03*
X283701D02*
D03*
X277795Y-117913D02*
D03*
X283701D02*
D03*
X277795Y-112008D02*
D03*
X283701D02*
D03*
M02*
