M48
;Layer_Color=9474304
;FILE_FORMAT=2:5
INCH,LZ
;TYPE=PLATED
T1F00S00C0.01181
T2F00S00C0.01575
T3F00S00C0.01772
T5F00S00C0.03937
T6F00S00C0.04724
T7F00S00C0.16614
;TYPE=NON_PLATED
T8F00S00C0.04535
T9F00S00C0.07874
T10F00S00C0.09449
T11F00S00C0.12598
%
T01
X0325787Y-0149536
X032874Y-0146653
X0329724Y-0142717
X0313976Y-0143701
X0312992Y-0150591
X0309055
X0305118
X0301181
X0297244
X0293307
X028937
X0285433
X0281496
X0277559
X0273622
X0269685
X0265748
X0261811
X0257874
X024311
X0239173
X0235236
X0231299
X0226433Y-0151361
X0222043Y-0153598
X0218559Y-0157082
X0216322Y-0161472
X0215551Y-0166339
Y-0170276
Y-0174213
Y-017815
Y-0182087
Y-0186024
Y-0189961
Y-0193898
Y-0197835
Y-0201772
Y-0205709
Y-0209646
Y-0213583
Y-021752
Y-0221457
Y-0225394
X0214496Y-0229331
X0211614Y-0232213
X0207677Y-0233268
X020374
X0199803
X0195866
X0191929
X0187992
X0184055
X0180118
X0176181
X0172244
X0168307
X016437
X0173228Y-0220473
X0188976
X0197835Y-0207146
X020374
X0188976Y-0188976
X017087Y-0189335
X0165945Y-0179
X0165354Y-0141732
X0207677Y-0175197
X0149606Y-0173228
X0133858
X011811
X0105Y-0176134
X0086614Y-0173228
X0070866
X0055118
X004626Y-0174213
Y-017815
Y-0182087
Y-0186024
Y-0189961
Y-0193898
Y-0197835
Y-0201772
Y-0205709
X005Y-0207146
Y-02105
X004626Y-0213583
Y-021752
Y-0221457
Y-0225394
Y-0229331
Y-0233268
X0050197
X0054134
X0058071
X0062008
X0065945
X0069882
X0073819
X0077756
X0081693
X008563
X0089567
X0093504
X0097441
X0101378
X0105315
X0109252
X0113189
X0117126
X0121063
X0125
X0128937
X0132874
X0136811
X0140748
X0144685
X0148622
X0152559
X0156496
X0160433
X015748Y-0220473
Y-0188976
X0141732
X01315Y-0189335
X0094488Y-0188976
X0062992
Y-015748
X007874
X0070866Y-0141732
X0086614
X0055118
X004626Y-0142717
Y-0146653
Y-0150591
Y-0154527
Y-0158465
Y-0162401
Y-0166339
Y-0170276
X0062992Y-0220473
X0133858Y-0141732
X0149606
X015748Y-015748
Y-0125984
X0141732
X0125984
X0110236
X0094488
X007874
X0062992
X004626Y-0126969
Y-0130905
Y-0134843
Y-0138779
Y-0123031
Y-0119094
Y-0115157
Y-011122
Y-0107283
Y-0103346
Y-0099409
Y-0095472
Y-0091535
Y-0087598
Y-0083661
Y-0079724
Y-0075787
Y-007185
Y-0067913
Y-0063976
Y-0060039
Y-0056102
Y-0052165
Y-0048228
Y-0044291
Y-0040354
Y-0036417
Y-003248
Y-0028543
Y-0024606
Y-0016732
Y-0012795
Y-0008858
X004626Y-0004921
X0046287Y-0001547
X004626Y0001602
Y0005047
X004626Y0008858
Y0012795
X0024606Y001378
X0012768Y0007846
Y-0000027
X0012795Y-0007874
X0026575Y-0014764
X0061Y-00205
X0070866Y-0015748
X0086614
X0102362
X011811
X0133858
X0149606
X015748Y-0
X0141732
X0125984
X0110236
X0094488
X007874
Y-0031496
X0094488
X0110236
X0125984
X0141732
X015748
X0149606Y-0047244
X0133858
X011811
X0102362
X0086614
X0070866
X0055118
X0062992Y-0062992
X007874
X0070866Y-007874
X0086614
X0102362
X011811
X0133858
X0149606
X015748Y-0062992
X0141732
X0125984
X0110236
Y-0094488
X0125984
X0141732
X015748
X0133858Y-0110236
X011811
X0102362
X0086614
X0070866
X0055118
X0062992Y-0094488
X007874
X0094488
X0055118Y-007874
X0165354
X0181102
X019685
X0188976Y-0062992
X0173228
X0165354Y-0047244
X0181102
X019685
X0188976Y-0031496
X0173228
X0165354Y-0015748
X0181102
X019685
X0188976Y-0
X0173228
X0221Y-00205
X023622Y-0031496
X0251968
X0267716
X0283661Y-0039
X0287205Y-00415
X027559Y-0047244
X0259842
X0244094
X023622Y-0062992
X0233Y-00905
X02305Y-0093
X0228Y-00955
X02255Y-0098
X0231299Y-0098425
X023622Y-0094488
X0245Y-01015
X0244094Y-0110236
X025689Y-0120079
Y-0125984
Y-013189
Y-0137795
X0267716Y-0125984
X0274843Y-0120866
X0280748
X0277795Y-0123819
X0283701
X0286654Y-0120866
Y-0114961
X0283701Y-0112008
X0280748Y-0114961
X0277795Y-0112008
X0274843Y-0114961
X0277795Y-0117913
X0283701
X0291338Y-0110236
X0307086
X0299213Y-0125984
X0313976Y-013189
Y-0137795
X0313976Y-0090551
Y-0084646
Y-007874
Y-0072835
X0313977Y-0066929
X0313977Y-0062992
X0306102Y-0063977
X0300197
X0307086Y-0015748
X0306173Y-0004927
X0283173Y-0004927
X0259842Y-0015748
X023622Y-0125984
X0223425Y-0134843
X0221Y-0113189
X019685Y-0110236
X0181102
X0165354
X0173228Y-0094488
X0188976
Y-0125984
X0173228
X0329724Y-0126967
Y-012303
Y-0119093
Y-0115156
Y-0111219
Y-0107282
Y-0103345
Y-0099408
Y-0095471
Y-0091535
Y-0087598
Y-008366
Y-0079723
Y-0075787
Y-007185
Y-0067913
Y-0063976
Y-0060039
Y-0056102
Y-0052165
Y-0048228
Y-0044291
Y-0040354
Y-0036417
Y-003248
Y-0028543
Y-0024606
Y-0020669
Y-0016732
Y-0012795
Y-0008858
Y-0004921
Y-0000984
Y0002953
Y000689
Y0010827
Y0014764
X0322834Y-0015748
Y-0047244
X0322835Y-0055118
X0329724Y-0130905
Y-0134843
Y-0138779
Y0018701
Y0022638
Y0026575
Y0030512
Y0034449
Y0038386
Y0042323
Y004626
Y0050197
Y0054134
Y0058071
Y0062008
Y0065945
Y0069882
Y0073819
Y0077756
Y0081693
Y008563
Y0089567
Y0093504
Y0097441
Y0101378
Y0105315
Y0109252
Y0113189
Y0117126
Y0121063
Y0125
Y0128937
Y0132874
Y0136811
Y0140748
Y0144685
Y0148622
Y0152559
Y0156496
Y0160433
Y016437
Y0168307
X0322834Y0141732
Y0110236
Y007874
Y0047244
Y0015748
X0307086
X02925Y00175
X02855
X0281842Y0017323
X0286961Y0034961
X0299213Y0031496
X0314961
Y0062992
X03105Y0066
X028937Y0059055
X0285472Y0073547
X0289Y01015
X0307742Y0098787
X0314961Y0094488
X03175Y0107087
X0314961Y0125984
X03Y01425
X0299213Y015748
X0283464
X0251968
X023622
X0220472
X0204724
X0212598Y0141732
X0228346
X0220472Y0125984
X0204724
X0212598Y0110236
X0228346
X0235016Y0112205
X0237587
X0240158
X0261Y01178
X02655Y0111
X0274Y013
X0220472Y0094488
X0212598Y007874
X019685
X0181102
X0165354
X0173228Y0094488
X0188976
Y0062992
X0173228
X0165354Y0047244
X0181102
X019685
X0212598
X02155Y003
X0188976Y0031496
X0173228
X0165354Y0015748
X0181102
X019685
X02565Y0055047
X0165354Y0110236
X0173228Y0125984
X0165354Y0141732
X015748Y015748
X0141732
X0125984
X0133858Y0141732
X0141732Y0125984
X015748
Y0094488
X0141732
X0125984
X0110236
X0094488
X007874
X0062992
X004626Y0095473
Y009941
Y0103347
Y0107284
Y0111221
Y0115158
Y0119095
Y0123032
Y0126969
Y0130906
Y0134843
Y013878
Y0142717
Y0146654
Y0150591
Y0154528
Y0158465
Y0162402
Y0166339
Y0170276
X0062992Y015748
X007874
X0070866Y0141732
X0086614
X0094488Y0125984
X0110236
X0125984
X011811Y0110236
X0133858
Y007874
X0149606
X015748Y0062992
X0141732
X0125984
X0110236
X0094488
X007874
X0062992
X004626Y0063977
Y0067914
Y0071851
Y0075788
Y0079725
Y0083662
Y0087599
Y0091536
X0055118Y007874
X0070866
X0086614
X0102362
X011811
Y0047244
X0133858
X0149606
X015748Y0031496
X0141732
X0125984
X0110236
X0094488
X007874
X0062992
X004626Y003248
Y0036417
Y0040354
Y0044291
Y0048228
Y0052166
Y0056103
Y006004
X0055118Y0047244
X0070866
X0086614
X0102362
Y0015748
X011811
X0133858
X0149606
X0086614
X0070866
X0055118
X004626Y0016732
Y0020669
Y0024606
Y0028543
X0055118Y0110236
X0070866
X0086614
X0102362
X007874Y0125984
X0062992
X0055118Y0141732
X0162244Y0171
Y0173571
Y0176142
X0144457Y0185709
X0130905Y0194488
X011811Y0204724
X0102362
X0086614
X0070866
X0055118
X004626Y0205709
Y0209646
Y0213583
Y021752
Y0221457
Y0225394
Y0229331
Y0233268
X0050197
X0054134
X0058071
X0062008
X0065945
X0069882
X0073819
X0077756
X0081693
X008563
X0089567
X0093504
X0097441
X0101378
X0105315
X0109252
X0113189
X0117126
X0121063
X0125
X0128937
X0132874
X0136811
X0140748
X0144685
X0148622
X0152559
X0156496
X0160433
X015748Y0220472
X0141732
X0125984
X0110236
X0094488
X007874
X0062992
Y0188976
X007874
X0096488Y0194488
X0110039Y0185709
X011261
X0115181
X011811Y0173228
X0133858
X0102362
X0086614
X0070866
X0055118
X004626Y0174213
Y017815
Y0182087
Y0186024
Y0189961
Y0193898
Y0197835
Y0201772
X0149606Y0204724
X0165354
X0181102
X0178598Y0194488
X0185488Y0188976
X0188976Y0188976
X0204724
X0220472
X023622
X0251968
X0267716
X0283464
X0299213
X0314961
X0307086Y0204724
X0291338
X0299213Y0220472
X0298228Y0233268
X0302165
X0306102
X0310039
X0313976
X031844Y0232356
X0314961Y0220472
X0294291Y0233268
X0290354
X0286417
X028248
X0278543
X0274606
X0270669
X0266732
X0262795
X0258858
X0254921
X0250984
X0247047
X024311
X0239173
X0235236
X0231299
X0227362
X0223425
X0219488
X0215551
X0211614
X0207677
X020374
X0199803
X0195866
X0191929
X0187992
X0184055
X0180118
X0176181
X0172244
X0168307
X016437
X0173228Y0220472
X0188976
X0204724
X0220472
X023622
X0251968
X0244094Y0204724
X0259842
Y0173228
X027559
X0291338
X0228346
X0212598
X019685
X0181102
X0165354
X019685Y0204724
X0212598
X0228346
X0322834
X0329724Y020374
Y0199803
Y0195866
Y0191929
Y0187992
Y0184055
Y0180118
Y0176181
Y0172244
X0322834Y0173228
X0329724Y0207677
Y0211614
Y0215551
X0329417Y0219728
X0328031Y022387
X032562Y0227513
X0322349Y0230407
T02
X-0170389Y-0007283
X-0182283Y0007283
X-0044291Y0
X-0044244Y-0015748
X-0050177Y-0031871
X-0026406Y0
X-0044244Y0015748
X-0050177Y0031871
T03
X0272638Y-0030315
X0276378
X0280118
X0283661
X0287205
Y-0024803
X0283661
X0290748
X0294488
X0298228
Y-0030315
X0294488
X0276378Y-0024803
X0272638
T05
X0246063Y0043898
Y0053898
Y0063898
Y0073898
Y0083898
Y0093898
T06
X0252953Y-002
Y0
Y002
X0311024Y0159291
Y0179291
T07
X027559Y-0212598
X-027559
Y0212598
X027559
T08
X0295276Y-0232283
X-0295276
Y0232283
T09
X0238976Y-0012795
Y0012795
T10
X0216535Y-0141142
T11
X0147638Y-0108661
Y0108661
M30
