G04*
G04 #@! TF.GenerationSoftware,Altium Limited,Altium Designer,22.2.1 (43)*
G04*
G04 Layer_Color=8388736*
%FSLAX25Y25*%
%MOIN*%
G70*
G04*
G04 #@! TF.SameCoordinates,848C5CEF-A0A5-40A2-882F-BA2EA4B76D18*
G04*
G04*
G04 #@! TF.FilePolarity,Negative*
G04*
G01*
G75*
%ADD10C,0.01000*%
%ADD12C,0.00800*%
%ADD13C,0.05701*%
%ADD14C,0.10642*%
%ADD15R,0.10642X0.10642*%
%ADD16R,0.10642X0.10642*%
%ADD17O,0.03359X0.04147*%
%ADD18O,0.09461X0.04934*%
%ADD19O,0.09461X0.07493*%
%ADD20R,0.09461X0.07493*%
D10*
X-334646Y-216535D02*
G03*
X-312992Y-238189I21654J0D01*
G01*
X312992D02*
G03*
X334646Y-216535I0J21654D01*
G01*
Y216535D02*
G03*
X312992Y238189I-21654J0D01*
G01*
X-312992D02*
G03*
X-334646Y216535I0J-21654D01*
G01*
X-312992Y-238189D02*
X0Y-238189D01*
X-334646Y-216535D02*
X-334646Y0D01*
X334646D02*
X334646Y-216535D01*
X0Y-238189D02*
X312992Y-238189D01*
X0Y238189D02*
X312992Y238189D01*
X334646Y0D02*
X334646Y216535D01*
X-334646D02*
X-334646Y0D01*
X-312992Y238189D02*
X0Y238189D01*
D12*
X275590Y212598D02*
D03*
X-275590D02*
D03*
X275590Y-212598D02*
D03*
X-275590D02*
D03*
X238976Y12795D02*
D03*
Y-12795D02*
D03*
X216535Y-141142D02*
D03*
X147638Y-108661D02*
D03*
Y108661D02*
D03*
D13*
X295276Y-232283D02*
D03*
X-295276D02*
D03*
Y232283D02*
D03*
D14*
X252953Y-20000D02*
D03*
Y0D02*
D03*
X311024Y159291D02*
D03*
D15*
X252953Y20000D02*
D03*
D16*
X311024Y179291D02*
D03*
D17*
X272638Y-30315D02*
D03*
X276378D02*
D03*
X283661D02*
D03*
X280118D02*
D03*
X298228D02*
D03*
X294488D02*
D03*
X287205D02*
D03*
X298228Y-24803D02*
D03*
X294488D02*
D03*
X287205D02*
D03*
X290748D02*
D03*
X272638D02*
D03*
X276378D02*
D03*
X283661D02*
D03*
D18*
X293307Y-19961D02*
D03*
X277559D02*
D03*
Y-35157D02*
D03*
X293307D02*
D03*
D19*
X246063Y93898D02*
D03*
Y83898D02*
D03*
Y73898D02*
D03*
Y63898D02*
D03*
Y53898D02*
D03*
D20*
Y43898D02*
D03*
M02*
