**ABCDEFGHIJKLMNOPQRSTUVWXYZabcdefghijklmnopqrstuvwxyz**************************
**PARASOLID !"#$%&'()*+,-./:;<=>?@[\]^_`{|}~0123456789**************************
**PART1;
MC=AMD64;
MC_MODEL=Intel64 Family 6 Model 60 Stepping 3, GenuineIntel;
MC_ID=unknown;
OS=Windows_NT;
OS_RELEASE=unknown;
FRU=Parasolid Version 33.1, build 247,  8- 6-2021;
APPL=SOLIDWORKS 2022-2021255;
SITE=;
USER=unknown;
FORMAT=text;
GUISE=transmit;
KEY=FILESpacerboard.x_t;
DATE=Fri Jul 22 21:33:53 2022;
**PART2;
SCH=SCH_3301247_33103;
USFLD_SIZE=0;
**PART3;
**END_OF_HEADER*****************************************************************
T51 : TRANSMIT FILE created by modeller version 330124723 SCH_3301247_33103_1300
6230 0 12 35 CCCI7 lattice222 0 CCCI4 mesh1006 0 I8 polyline1008 0 CCCCCCCDI5 ow
ner1040 0 CCCCCCI13 boundary_mesh1006 0 I17 boundary_polyline1008 0 CCCA16 index
_map_offset0 0 1 dA9 index_map82 0 A17 node_id_index_map82 0 A20 schema_embeddin
g_map82 0 A5 child12 0 A14 lowest_node_id0 0 1 dA16 mesh_offset_data206 0 Z1 187
3 2 3 0 0 0 0 0 0 0 1e3 1e-8 0 4 0 1 0 1 1 5 6 7 8 0 0 9 10 11 0 0 0 0 0 0 0 81
 255 2 2 1821 12 1 13 0 0 0 0 14 70 11 CI9 list_type0 0 1 uI10 notransmit0 0 1 l
CCCDCCDI12 finger_index0 0 1 dI12 finger_block1012 0 CZ3 0 4 T1 0 0 8 20 1 15 15
 13 255 5 1198 0 1 0 16 0 0 17 0 50 255 6 1154 0 18 19 0 0 +0 .006 .04999999906
 0 0 -1 -1 0 0 30 255 7 1197 0 20 21 0 0 +-.08640000018 .006 .04999999906 0 -1 0
 29 255 8 905 0 22 23 0 .06122999946 0 -.02385000056 19 8 CCCCCCCA5 owner12 0 Z9
 405 0 1 17 0 24 V0 16 255 10 952 0 ?25 0 26 27 0 0 1 18 255 11 401 0 28 0 29 30
 ?1 17 255 28 0 31 32 33 11 34 35 0 36 +18 29 398 0 37 11 38 39 ?1 29 30 403 0 1
1 39 40 .06122999946 .006 -.02385000056 29 39 400 0 29 41 30 .06122999946 .006 -
.01115000056 29 40 947 0 42 30 43 -.08640000018 0 .04999999906 18 42 853 0 44 45
 0 40 ?1 29 43 946 0 45 40 46 -.08640000018 0 .05499999922 18 45 852 0 47 48 42
 43 ?1 29 46 945 0 48 43 49 -.0795000042213582 0 .0618999958399999 18 48 851 0 5
0 51 45 46 ?1 29 49 944 0 51 46 52 -562734273414178e-23 0 .06190000346 18 51 850
 0 53 54 48 49 ?1 29 52 943 0 54 49 55 .0794999991413583 0 .06189999584 18 54 84
9 0 56 57 51 52 ?1 29 55 942 0 57 52 58 .08639999637 0 .0549999976313455 18 57 8
48 0 59 60 54 55 ?1 29 58 941 0 60 55 61 .08639999383 0 1141579193460476e-23 18
 60 847 0 62 63 57 58 ?1 29 61 940 0 63 58 64 .08639999637 0 -.05500000049 18 63
 846 0 65 66 60 61 ?1 29 64 939 0 66 61 67 .0794999991413583 0 -.061899998379999
9 18 66 845 0 68 69 63 64 ?1 29 67 938 0 69 64 70 1189115813175602e-22 0 -.06190
00059999883 18 69 844 0 71 72 66 67 ?1 29 70 937 0 72 67 73 -.07950000356 0 -.06
189999838 18 72 843 0 74 75 69 70 ?1 29 73 936 0 75 70 76 -.0864000014499986 0 -
.0549999969848012 18 75 842 0 77 78 72 73 ?1 29 76 935 0 78 73 79 -.086399998910
0015 0 -.0500000028699984 18 78 841 0 80 81 75 76 ?1 29 79 934 0 81 76 82 .05343
65009499984 0 -.0500000028699984 18 81 840 0 83 84 78 79 ?1 29 82 933 0 84 79 85
 .0535634867235141 0 -.0499986587862529 18 84 839 0 86 87 81 82 ?1 29 85 932 0 8
7 82 88 .0549986564107321 0 -.0485634889977756 18 87 838 0 89 90 84 85 ?1 29 88
 931 0 90 85 91 .0550000004855181 0 -.0484365032241651 18 90 837 0 92 93 87 88 ?
1 29 91 930 0 93 88 94 .0549999979499984 0 -.01250000428055408 18 93 836 0 95 96
 90 91 ?1 29 94 929 0 96 91 97 .0559999997599984 0 -.0115000023999984 18 96 835
 0 98 99 93 94 ?1 29 97 928 0 99 94 100 .0569999990299984 0 -.0105000031299984 1
8 99 834 0 101 102 96 97 ?1 29 100 927 0 102 97 103 .0569999990299984 0 -.008000
00304999838 18 102 833 0 104 105 99 100 ?1 29 103 926 0 105 100 106 .05799999956
99984 0 -.00700000250999839 18 105 832 0 107 108 102 103 ?1 29 106 925 0 108 103
 109 .0642499997699983 0 -.00700000250999839 18 108 831 0 110 111 105 106 ?1 29
 109 924 0 111 106 112 .0661700010099984 0 -.00508000126999841 18 111 830 0 113
 114 108 109 ?1 29 112 923 0 114 109 115 .0661700010099984 0 .00507999872999838
 18 114 829 0 116 117 111 112 ?1 29 115 922 0 117 112 118 .0642499997699984 0 .0
0699999996999838 18 117 828 0 119 120 114 115 ?1 29 118 921 0 120 115 121 .05599
99984900016 0 .00699999996999838 18 120 827 0 122 123 117 118 ?1 29 121 920 0 12
3 118 124 .05499999922 0 .00799999924 18 123 826 0 125 126 120 121 ?1 29 124 919
 0 126 121 127 .05499999922 0 .04849999952 18 126 825 0 128 129 123 124 ?1 29 12
7 918 0 129 124 130 .05349999968 0 .04999999906 18 129 824 0 131 132 126 127 ?1
 29 130 917 0 132 127 133 .0695000007 0 .004249999119999995 18 132 823 0 134 135
 129 130 ?1 29 133 916 0 135 130 136 .07549999886 0 .004249999119999995 18 135 8
22 0 137 138 132 133 ?1 29 136 915 0 138 133 139 .0764999994 0 .00524999966 18 1
38 821 0 140 141 135 136 ?1 29 139 914 0 141 136 142 .0764999994 0 .008750002819
99999 18 141 820 0 143 144 138 139 ?1 29 142 913 0 144 139 145 .07549999886 0 .0
0975000336 18 144 819 0 146 147 141 142 ?1 29 145 912 0 147 142 148 .0695000007
 0 .00975000336 18 147 818 0 149 150 144 145 ?1 29 148 911 0 150 145 151 .068500
00016 0 .00875000281999999 18 150 817 0 152 153 147 148 ?1 29 151 910 0 153 148
 154 .06850000016 0 .00524999966 18 153 816 0 155 156 150 151 ?1 29 154 909 0 15
6 151 157 .06376841196 0 -.0239134807131485 18 156 815 0 25 158 153 154 ?1 29 15
7 908 0 158 154 159 .06376999946 0 -.02378650056 18 158 814 0 160 161 156 157 ?1
 29 159 907 0 161 157 23 .06376999946 0 -.01115000056 18 161 813 0 162 163 158 1
59 ?1 29 23 906 0 163 159 8 .06122999946 0 -.01115000056 18 163 812 0 164 22 161
 23 ?1 17 164 0 165 166 34 163 37 167 0 168 +18 22 811 0 169 170 163 8 ?1 17 169
 0 171 172 173 22 36 174 0 166 +18 170 275 0 175 176 22 177 ?1 17 175 0 178 179
 180 170 44 20 0 181 -18 176 278 0 182 183 170 184 ?1 29 177 277 0 170 0 184 -.0
8640000018 .006 .04999999906 29 184 280 0 176 177 185 -.08640000018 .006 .054999
99922 29 185 283 0 183 184 186 -.0795000042213582 .006 .0618999958399999 18 183
 281 0 187 188 176 185 ?1 29 186 286 0 188 185 189 -562734273414178e-23 .006 .06
190000346 18 188 284 0 190 191 183 186 ?1 29 189 289 0 191 186 192 .079499999141
3583 .006 .06189999584 18 191 287 0 193 194 188 189 ?1 29 192 292 0 194 189 195
 .08639999637 .006 .0549999976313455 18 194 290 0 196 197 191 192 ?1 29 195 295
 0 197 192 198 .08639999383 .006 1141579193460476e-23 18 197 293 0 199 200 194 1
95 ?1 29 198 298 0 200 195 201 .08639999637 .006 -.05500000049 18 200 296 0 202
 203 197 198 ?1 29 201 301 0 203 198 204 .0794999991413583 .006 -.06189999837999
99 18 203 299 0 205 206 200 201 ?1 29 204 304 0 206 201 207 1189115813175602e-22
 .006 -.0619000059999883 18 206 302 0 208 209 203 204 ?1 29 207 307 0 209 204 21
0 -.07950000356 .006 -.06189999838 18 209 305 0 211 212 206 207 ?1 29 210 310 0
 212 207 213 -.0864000014499986 .006 -.0549999969848012 18 212 308 0 214 215 209
 210 ?1 29 213 313 0 215 210 216 -.0863999989100015 .006 -.0500000028699984 18 2
15 311 0 217 218 212 213 ?1 29 216 316 0 218 213 219 .0534365009499984 .006 -.05
00000028699984 18 218 314 0 220 221 215 216 ?1 29 219 319 0 221 216 222 .0535634
867235141 .006 -.0499986587862529 18 221 317 0 223 224 218 219 ?1 29 222 322 0 2
24 219 225 .0549986564107321 .006 -.0485634889977756 18 224 320 0 226 227 221 22
2 ?1 29 225 325 0 227 222 228 .0550000004855181 .006 -.0484365032241651 18 227 3
23 0 229 230 224 225 ?1 29 228 328 0 230 225 231 .0549999979499984 .006 -.012500
00428055408 18 230 326 0 232 233 227 228 ?1 29 231 331 0 233 228 234 .0559999997
599984 .006 -.0115000023999984 18 233 329 0 235 236 230 231 ?1 29 234 334 0 236
 231 237 .0569999990299984 .006 -.0105000031299984 18 236 332 0 238 239 233 234
 ?1 29 237 337 0 239 234 240 .0569999990299984 .006 -.00800000304999838 18 239 3
35 0 241 242 236 237 ?1 29 240 340 0 242 237 243 .0579999995699984 .006 -.007000
00250999839 18 242 338 0 244 245 239 240 ?1 29 243 343 0 245 240 246 .0642499997
699983 .006 -.00700000250999839 18 245 341 0 247 248 242 243 ?1 29 246 346 0 248
 243 249 .0661700010099984 .006 -.00508000126999841 18 248 344 0 250 251 245 246
 ?1 29 249 349 0 251 246 252 .0661700010099984 .006 .00507999872999838 18 251 34
7 0 253 254 248 249 ?1 29 252 352 0 254 249 255 .0642499997699984 .006 .00699999
996999838 18 254 350 0 256 257 251 252 ?1 29 255 355 0 257 252 258 .055999998490
0016 .006 .00699999996999838 18 257 353 0 259 260 254 255 ?1 29 258 358 0 260 25
5 261 .05499999922 .006 .00799999924 18 260 356 0 262 263 257 258 ?1 29 261 361
 0 263 258 264 .05499999922 .006 .04849999952 18 263 359 0 265 266 260 261 ?1 29
 264 364 0 266 261 267 .05349999968 .006 .04999999906 18 266 362 0 268 269 263 2
64 ?1 29 267 367 0 269 264 270 .0695000007 .006 .004249999119999995 18 269 365 0
 271 272 266 267 ?1 29 270 370 0 272 267 273 .07549999886 .006 .0042499991199999
95 18 272 368 0 274 275 269 270 ?1 29 273 373 0 275 270 276 .0764999994 .006 .00
524999966 18 275 371 0 277 278 272 273 ?1 29 276 376 0 278 273 279 .0764999994 .
006 .00875000281999999 18 278 374 0 280 281 275 276 ?1 29 279 379 0 281 276 282
 .07549999886 .006 .00975000336 18 281 377 0 283 284 278 279 ?1 29 282 382 0 284
 279 285 .0695000007 .006 .00975000336 18 284 380 0 286 287 281 282 ?1 29 285 38
5 0 287 282 288 .06850000016 .006 .00875000281999999 18 287 383 0 289 290 284 28
5 ?1 29 288 388 0 290 285 291 .06850000016 .006 .00524999966 18 290 386 0 292 29
3 287 288 ?1 29 291 391 0 293 288 294 .06376841196 .006 -.0239134807131485 18 29
3 389 0 295 296 290 291 ?1 29 294 394 0 296 291 41 .06376999946 .006 -.023786500
56 18 296 392 0 297 38 293 294 ?1 29 41 397 0 38 294 39 .06376999946 .006 -.0111
5000056 18 38 395 0 298 29 296 41 ?1 17 298 0 299 300 301 38 162 302 0 303 -15 2
55 299 1019 0 301 304 0 17 300 0 299 160 298 296 303 305 0 0 +17 301 0 299 298 1
60 161 306 307 0 308 -17 162 0 309 310 311 161 298 302 0 301 +16 302 950 0 ?162
 26 167 312 0 0 1 17 303 0 31 33 313 38 300 305 0 311 -15 31 7 0 32 314 315 17 3
3 0 31 28 303 29 311 316 0 0 -17 313 0 31 303 32 296 317 318 0 300 -16 305 230 0
 ?300 316 318 319 0 0 1 17 311 0 309 162 37 38 33 316 0 0 +15 309 1017 0 310 320
 0 17 37 0 309 311 310 29 164 167 0 34 -16 316 235 0 ?311 35 305 321 0 0 1 16 35
 240 0 ?28 322 316 323 0 0 1 31 255 321 237 0 316 319 323 0 +.06249999946 .006 -
.01115000056 0 1 0 0 0 1 .00127 30 319 232 0 305 324 321 0 +.06376999946 .006 0
 0 0 -1 30 323 242 0 35 321 325 0 +.06122999946 .006 0 0 0 -1 31 325 247 0 322 3
23 326 0 +.07899999948 .006 -.04046000036 0 1 0 0 0 1 .00179999893999999 16 322
 245 0 ?327 328 35 325 0 0 1 31 326 252 0 328 325 329 0 +.07899999948 .006 -.045
54000036 0 1 0 0 0 1 .00179999893999999 16 328 250 0 ?330 331 322 326 0 0 1 31 3
29 257 0 331 326 332 0 +-.0699999997 .006 .05400000122 0 1 0 0 0 1 .001599999340
000005 16 331 255 0 ?333 334 328 329 0 0 1 31 332 262 0 334 329 335 0 +.06999999
97 .006 .05400000122 0 1 0 0 0 1 .00159999934000002 16 334 260 0 ?336 337 331 33
2 0 0 1 31 335 267 0 337 332 338 0 +.0699999997 .006 -.05400000122 0 1 0 0 0 1 .
00159999934000002 16 337 265 0 ?339 340 334 335 0 0 1 31 338 272 0 340 335 341 0
 +-.0699999997 .006 -.05400000122 0 1 0 0 0 1 .001599999340000005 16 340 270 0 ?
342 343 337 338 0 0 1 30 341 904 0 344 338 345 0 +0 0 .04999999906 1 0 0 16 344
 804 0 ?346 347 0 341 0 0 1 30 345 903 0 347 341 348 0 +-.08640000018 0 0 0 0 -1
 16 347 799 0 ?349 350 344 345 0 0 1 31 348 902 0 350 345 351 0 +-.07950000356 0
 .05499999922 0 1 0 0 0 1 .00689999661999999 16 350 794 0 ?50 352 347 348 0 0 1
 30 351 901 0 352 348 353 0 +-593305707201018e-23 0 .06190000346 1 0 95849058810
5397e-22 16 352 789 0 ?53 354 350 351 0 0 1 30 353 900 0 354 351 355 0 +59330566
0039001e-23 0 .0619000034599989 1 0 -958490511914762e-22 16 354 784 0 ?56 356 35
2 353 0 0 1 31 355 899 0 356 353 357 0 +.07949999848 0 .05499999795 0 1 0 0 0 1
 .00689999789 16 356 779 0 ?358 359 354 355 0 0 1 30 357 898 0 359 355 360 0 +.0
863999938299992 0 -3990109830926395e-24 461818300447722e-22 0 1 16 359 774 0 ?36
1 362 356 357 0 0 1 30 360 897 0 362 357 363 0 +.0863999938300003 0 399010801076
7005e-24 461818089781105e-22 0 -1 16 362 769 0 ?65 364 359 360 0 0 1 31 363 896
 0 364 360 365 0 +.07949999848 0 -.05500000049 0 1 0 0 0 1 .00689999789 16 364 7
64 0 ?366 367 362 363 0 0 1 30 365 895 0 367 363 368 0 +593305707775319e-23 0 -.
0619000059999992 1 0 958490549702571e-22 16 367 759 0 ?369 370 364 365 0 0 1 30
 368 894 0 370 365 371 0 +-593303895073352e-23 0 -.0619000059999764 1 0 -9584876
21267074e-22 16 370 754 0 ?372 373 367 368 0 0 1 31 371 893 0 373 368 374 0 +-.0
7950000356 0 -.05500000049 0 1 0 0 0 1 .00689999788999971 16 373 749 0 ?375 376
 370 371 0 0 1 30 374 892 0 376 371 377 0 +-.0863999735099774 0 438911871600529e
-22 -508000007140959e-21 0 -.999999999999871 16 376 744 0 ?378 379 373 374 0 0 1
 30 377 891 0 379 374 380 0 +0 0 -.0500000028699984 1 0 0 16 379 737 0 ?381 382
 376 377 0 0 1 31 380 890 0 382 377 383 0 +.0535000009499984 0 -.050000002869998
4 0 1 0 0 0 1 635000000000065e-19 16 382 731 0 ?384 385 379 380 0 0 1 31 383 889
 0 385 380 386 0 +.0535000009499984 0 -.0485000033299984 0 1 0 0 0 1 .0014999995
39999996 16 385 726 0 ?387 388 382 383 0 0 1 31 386 888 0 388 383 389 0 +.055000
0004899983 0 -.0485000032241651 0 1 0 0 0 1 635000000000086e-19 16 388 720 0 ?39
0 391 385 386 0 0 1 30 389 887 0 391 386 392 0 +.0549999970680533 0 388055542320
3605e-24 705555569103405e-22 0 -1 16 391 715 0 ?393 394 388 389 0 0 1 31 392 886
 0 394 389 395 0 +.0559999997599984 0 -.0125000042099984 0 1 0 0 0 1 .0010000018
1000001 16 394 710 0 ?396 397 391 392 0 0 1 31 395 885 0 397 392 398 0 +.0559999
997599984 0 -.0105000031299984 0 1 0 0 0 1 .000999999269999989 16 397 705 0 ?399
 400 394 395 0 0 1 30 398 884 0 400 395 401 0 +.0569999990299984 0 0 0 0 -1 16 4
00 700 0 ?402 403 397 398 0 0 1 31 401 883 0 403 398 404 0 +.0579999995699984 0
 -.00800000304999839 0 1 0 0 0 1 .001000000539999996 16 403 695 0 ?107 405 400 4
01 0 0 1 30 404 882 0 405 401 406 0 +0 0 -.00700000250999839 1 0 0 16 405 690 0
 ?407 408 403 404 0 0 1 31 406 881 0 408 404 409 0 +.0642499997699984 0 -.005080
00126999839 0 1 0 0 0 1 .001920001239999995 16 408 685 0 ?410 411 405 406 0 0 1
 30 409 880 0 411 406 412 0 +.0661700010099984 0 -903831922499918e-31 1365923996
832564e-30 0 1 16 411 680 0 ?413 414 408 409 0 0 1 31 412 879 0 414 409 415 0 +.
0642499997699984 0 .00507999872999837 0 1 0 0 0 1 .00192000124000001 16 414 675
 0 ?416 417 411 412 0 0 1 30 415 878 0 417 412 418 0 +0 0 .00699999996999838 1 0
 0 16 417 670 0 ?419 420 414 415 0 0 1 31 418 877 0 420 415 421 0 +.055999998490
0016 0 .00799999924000001 0 1 0 0 0 1 .000999999270001631 16 420 665 0 ?422 423
 417 418 0 0 1 30 421 876 0 423 418 424 0 +.05499999922 0 0 0 0 -1 16 423 660 0
 ?425 426 420 421 0 0 1 31 424 875 0 426 421 427 0 +.05349999968 0 .04849999952
 0 1 0 0 0 1 .001499999540000004 16 426 655 0 ?428 429 423 424 0 0 1 31 427 874
 0 429 424 430 0 +.08499999383 0 1135113740213604e-23 0 1 0 0 0 1 63500000000007
6e-19 16 429 648 0 ?431 432 426 427 0 0 1 31 430 873 0 432 427 433 0 +.069500000
7 0 .00524999966000002 0 1 0 0 0 1 .00100000054000002 16 432 643 0 ?434 435 429
 430 0 0 1 30 433 872 0 435 430 436 0 +0 0 .004249999119999995 1 0 0 16 435 638
 0 ?437 438 432 433 0 0 1 31 436 871 0 438 433 439 0 +.07549999886 0 .0052499996
6 0 1 0 0 0 1 .00100000054 16 438 633 0 ?440 441 435 436 0 0 1 30 439 870 0 441
 436 442 0 +.0764999994 0 0 0 0 -1 16 441 627 0 ?443 444 438 439 0 0 1 31 442 86
9 0 444 439 445 0 +.07549999886 0 .00875000281999998 0 1 0 0 0 1 .00100000054 16
 444 622 0 ?446 447 441 442 0 0 1 30 445 868 0 447 442 448 0 +0 0 .00975000336 1
 0 0 16 447 617 0 ?449 450 444 445 0 0 1 31 448 867 0 450 445 451 0 +.0695000007
 0 .00875000281999997 0 1 0 0 0 1 .00100000054000002 16 450 612 0 ?452 453 447 4
48 0 0 1 30 451 866 0 453 448 454 0 +.06850000016 0 0 0 0 -1 16 453 606 0 ?455 4
56 450 451 0 0 1 31 454 865 0 456 451 457 0 +.06249999946 0 -.02385000056 0 1 0
 0 0 1 .00127 16 456 601 0 ?458 459 453 454 0 0 1 31 457 864 0 459 454 460 0 +.0
6376999946 0 -.02385000056 0 1 0 0 0 1 635000000000219e-19 16 459 595 0 ?461 307
 456 457 0 0 1 30 460 863 0 307 457 462 0 +.06376999946 0 0 0 0 -1 16 307 590 0
 ?306 463 459 460 0 0 1 31 462 862 0 463 460 464 0 +.06249999946 0 -.01115000056
 0 1 0 0 0 1 .00127 16 463 585 0 ?308 465 307 462 0 0 1 30 464 861 0 465 462 466
 0 +.06122999946 0 0 0 0 -1 16 465 580 0 ?166 467 463 464 0 0 1 31 466 860 0 467
 464 468 0 +.07899999948 0 -.04046000036 0 1 0 0 0 1 .00179999893999999 16 467 5
75 0 ?469 470 465 466 0 0 1 31 468 859 0 470 466 471 0 +.07899999948 0 -.0455400
0036 0 1 0 0 0 1 .00179999893999999 16 470 570 0 ?472 473 467 468 0 0 1 31 471 8
58 0 473 468 474 0 +-.0699999997 0 .05400000122 0 1 0 0 0 1 .001599999340000005
 16 473 565 0 ?475 476 470 471 0 0 1 31 474 857 0 476 471 477 0 +.0699999997 0 .
05400000122 0 1 0 0 0 1 .00159999934000002 16 476 560 0 ?478 479 473 474 0 0 1 3
1 477 856 0 479 474 480 0 +.0699999997 0 -.05400000122 0 1 0 0 0 1 .001599999340
00002 16 479 555 0 ?481 482 476 477 0 0 1 31 480 855 0 482 477 483 0 +-.06999999
97 0 -.05400000122 0 1 0 0 0 1 .001599999340000005 16 482 550 0 ?484 485 479 480
 0 0 1 30 483 1155 0 174 480 486 0 +.06122999946 .006 -.02385000056 0 -1 0 16 17
4 948 0 ?169 167 487 483 0 0 1 30 486 1156 0 167 483 312 0 +.06122999946 .006 -.
01115000056 0 -1 0 16 167 949 0 ?164 302 174 486 0 0 1 30 312 1157 0 302 486 488
 0 +.06376999946 .006 -.01115000056 0 -1 0 30 488 1158 0 26 312 27 0 +.063769999
46 .006 -.02378650056 0 -1 0 16 26 951 0 ?160 10 302 488 0 0 1 30 27 1159 0 10 4
88 489 0 +.06376841196 .006 -.0239134807131485 0 -1 0 30 489 1160 0 490 27 491 0
 +.06850000016 .006 .00524999966 0 -1 0 16 490 953 0 ?155 492 20 489 0 0 1 30 49
1 1161 0 492 489 493 0 +.06850000016 .006 .00875000281999999 0 -1 0 16 492 954 0
 ?152 494 490 491 0 0 1 30 493 1162 0 494 491 495 0 +.0695000007 .006 .009750003
36 0 -1 0 16 494 955 0 ?149 496 492 493 0 0 1 30 495 1163 0 496 493 497 0 +.0754
9999886 .006 .00975000336 0 -1 0 16 496 956 0 ?146 498 494 495 0 0 1 30 497 1164
 0 498 495 499 0 +.0764999994 .006 .00875000281999999 0 -1 0 16 498 957 0 ?143 5
00 496 497 0 0 1 30 499 1165 0 500 497 501 0 +.0764999994 .006 .00524999966 0 -1
 0 16 500 958 0 ?140 502 498 499 0 0 1 30 501 1166 0 502 499 503 0 +.07549999886
 .006 .004249999119999995 0 -1 0 16 502 959 0 ?137 487 500 501 0 0 1 30 503 1167
 0 487 501 504 0 +.0695000007 .006 .004249999119999995 0 -1 0 16 487 960 0 ?134
 174 502 503 0 0 1 30 504 1168 0 343 503 505 0 +.05349999968 .006 .04999999906 0
 -1 0 16 343 961 0 ?131 506 340 504 0 0 1 30 505 1169 0 506 504 507 0 +.05499999
922 .006 .04849999952 0 -1 0 16 506 962 0 ?128 508 343 505 0 0 1 30 507 1170 0 5
08 505 509 0 +.05499999922 .006 .00799999924 0 -1 0 16 508 963 0 ?125 510 506 50
7 0 0 1 30 509 1171 0 510 507 511 0 +.0559999984900016 .006 .00699999996999838 0
 -1 0 16 510 964 0 ?122 512 508 509 0 0 1 30 511 1172 0 512 509 513 0 +.06424999
97699984 .006 .00699999996999838 0 -1 0 16 512 965 0 ?119 514 510 511 0 0 1 30 5
13 1173 0 514 511 515 0 +.0661700010099984 .006 .00507999872999838 0 -1 0 16 514
 966 0 ?116 516 512 513 0 0 1 30 515 1174 0 516 513 517 0 +.0661700010099984 .00
6 -.00508000126999841 0 -1 0 16 516 967 0 ?113 518 514 515 0 0 1 30 517 1175 0 5
18 515 519 0 +.0642499997699983 .006 -.00700000250999839 0 -1 0 16 518 968 0 ?11
0 520 516 517 0 0 1 30 519 1176 0 520 517 521 0 +.0579999995699984 .006 -.007000
00250999839 0 -1 0 16 520 969 0 ?522 523 518 519 0 0 1 30 521 1177 0 523 519 524
 0 +.0569999990299984 .006 -.00800000304999838 0 -1 0 16 523 970 0 ?104 525 520
 521 0 0 1 30 524 1178 0 525 521 526 0 +.0569999990299984 .006 -.010500003129998
4 0 -1 0 16 525 971 0 ?101 527 523 524 0 0 1 30 526 1179 0 527 524 528 0 +.05599
99997599984 .006 -.0115000023999984 0 -1 0 16 527 972 0 ?98 529 525 526 0 0 1 30
 528 1180 0 529 526 530 0 +.0549999979499984 .006 -.01250000428055408 0 -1 0 16
 529 973 0 ?95 531 527 528 0 0 1 30 530 1181 0 531 528 532 0 +.0550000004855181
 .006 -.0484365032241651 0 -1 0 16 531 974 0 ?92 533 529 530 0 0 1 30 532 1182 0
 533 530 534 0 +.0549986564107321 .006 -.0485634889977756 0 -1 0 16 533 975 0 ?8
9 535 531 532 0 0 1 30 534 1183 0 535 532 536 0 +.0535634867235141 .006 -.049998
6587862529 0 -1 0 16 535 976 0 ?86 537 533 534 0 0 1 30 536 1184 0 537 534 538 0
 +.0534365009499984 .006 -.0500000028699984 0 -1 0 16 537 977 0 ?83 539 535 536
 0 0 1 30 538 1185 0 539 536 540 0 +-.0863999989100015 .006 -.0500000028699984 0
 -1 0 16 539 978 0 ?80 541 537 538 0 0 1 30 540 1186 0 541 538 542 0 +-.08640000
14499986 .006 -.0549999969848012 0 -1 0 16 541 979 0 ?77 543 539 540 0 0 1 30 54
2 1187 0 543 540 544 0 +-.07950000356 .006 -.06189999838 0 -1 0 16 543 980 0 ?74
 545 541 542 0 0 1 30 544 1188 0 545 542 546 0 +1189115813175602e-22 .006 -.0619
000059999883 0 -1 0 16 545 981 0 ?71 547 543 544 0 0 1 30 546 1189 0 547 544 548
 0 +.0794999991413583 .006 -.0618999983799999 0 -1 0 16 547 982 0 ?68 549 545 54
6 0 0 1 30 548 1190 0 549 546 550 0 +.08639999637 .006 -.05500000049 0 -1 0 16 5
49 983 0 ?551 552 547 548 0 0 1 30 550 1191 0 552 548 553 0 +.08639999383 .006 1
141579193460476e-23 0 -1 0 16 552 984 0 ?62 554 549 550 0 0 1 30 553 1192 0 554
 550 555 0 +.08639999637 .006 .0549999976313455 0 -1 0 16 554 985 0 ?59 556 552
 553 0 0 1 30 555 1193 0 556 553 557 0 +.0794999991413583 .006 .06189999584 0 -1
 0 16 556 986 0 ?558 559 554 555 0 0 1 30 557 1194 0 559 555 560 0 +-56273427341
4178e-23 .006 .06190000346 0 -1 0 16 559 987 0 ?561 562 556 557 0 0 1 30 560 119
5 0 562 557 21 0 +-.0795000042213582 .006 .0618999958399999 0 -1 0 16 562 988 0
 ?563 564 559 560 0 0 1 30 21 1196 0 564 560 7 0 +-.08640000018 .006 .0549999992
2 0 -1 0 16 564 989 0 ?47 20 562 21 0 0 1 17 47 0 565 50 566 45 182 564 0 567 +1
6 20 990 0 ?44 490 564 7 0 0 1 17 44 0 568 569 570 42 175 20 0 180 +15 568 1101
 0 569 571 0 17 569 0 568 182 44 45 349 347 0 0 -17 570 0 568 44 182 170 572 573
 0 0 +17 180 0 178 175 131 42 346 344 0 349 -15 178 1103 0 180 18 0 17 131 0 178
 180 179 129 268 343 0 346 +17 346 0 574 428 349 129 180 344 0 575 +17 349 0 574
 346 567 42 569 347 0 0 +15 574 540 0 346 576 577 17 567 0 574 349 578 45 50 350
 0 569 -17 578 0 574 567 579 48 53 352 0 0 -17 50 0 565 580 47 48 567 350 0 563
 +15 565 1099 0 50 581 0 17 580 0 565 566 50 183 563 562 0 582 -17 563 0 583 53
 582 48 580 562 0 578 +15 583 1097 0 53 584 0 17 53 0 583 585 563 51 578 352 0 5
61 +17 582 0 583 563 585 183 190 586 0 0 -17 585 0 583 582 53 188 561 559 0 587
 -17 190 0 588 193 187 188 582 586 0 585 +16 586 31 0 ?190 589 590 591 0 0 1 16
 589 36 0 ?193 592 586 593 0 0 1 16 590 26 0 ?187 586 573 594 0 0 1 30 591 33 0
 586 594 593 0 +-593305707201018e-23 .006 .06190000346 1 0 958490588105397e-22 3
1 594 28 0 590 595 591 0 +-.07950000356 .006 .05499999922 0 1 0 0 0 1 .006899996
61999999 30 593 38 0 589 591 596 0 +593305660039001e-23 .006 .0619000034599989 1
 0 -958490511914762e-22 31 596 43 0 592 593 597 0 +.07949999848 .006 .0549999979
5 0 1 0 0 0 1 .00689999789 16 592 41 0 ?196 598 589 596 0 0 1 30 597 48 0 598 59
6 599 0 +.0863999938299992 .006 -3990109830926395e-24 461818300447722e-22 0 1 16
 598 46 0 ?600 601 592 597 0 0 1 30 599 53 0 601 597 602 0 +.0863999938300003 .0
06 3990108010767005e-24 461818089781105e-22 0 -1 16 601 51 0 ?202 603 598 599 0
 0 1 31 602 58 0 603 599 604 0 +.07949999848 .006 -.05500000049 0 1 0 0 0 1 .006
89999789 16 603 56 0 ?205 605 601 602 0 0 1 30 604 63 0 605 602 606 0 +593305707
775319e-23 .006 -.0619000059999992 1 0 958490549702571e-22 16 605 61 0 ?607 608
 603 604 0 0 1 30 606 68 0 608 604 609 0 +-593303895073352e-23 .006 -.0619000059
999764 1 0 -958487621267074e-22 16 608 66 0 ?610 611 605 606 0 0 1 31 609 73 0 6
11 606 612 0 +-.07950000356 .006 -.05500000049 0 1 0 0 0 1 .00689999788999971 16
 611 71 0 ?214 613 608 609 0 0 1 30 612 78 0 613 609 614 0 +-.0863999735099774 .
006 438911871600529e-22 -508000007140959e-21 0 -.999999999999871 16 613 76 0 ?61
5 616 611 612 0 0 1 30 614 83 0 616 612 617 0 +0 .006 -.0500000028699984 1 0 0 1
6 616 81 0 ?220 618 613 614 0 0 1 31 617 90 0 618 614 619 0 +.0535000009499984 .
006 -.0500000028699984 0 1 0 0 0 1 635000000000065e-19 16 618 88 0 ?620 621 616
 617 0 0 1 31 619 96 0 621 617 622 0 +.0535000009499984 .006 -.0485000033299984
 0 1 0 0 0 1 .001499999539999996 16 621 94 0 ?623 624 618 619 0 0 1 31 622 101 0
 624 619 625 0 +.0550000004899983 .006 -.0485000032241651 0 1 0 0 0 1 6350000000
00086e-19 16 624 99 0 ?626 627 621 622 0 0 1 30 625 107 0 627 622 628 0 +.054999
9970680533 .006 3880555423203605e-24 705555569103405e-22 0 -1 16 627 105 0 ?629
 630 624 625 0 0 1 31 628 112 0 630 625 631 0 +.0559999997599984 .006 -.01250000
42099984 0 1 0 0 0 1 .00100000181000001 16 630 110 0 ?235 632 627 628 0 0 1 31 6
31 117 0 632 628 633 0 +.0559999997599984 .006 -.0105000031299984 0 1 0 0 0 1 .0
00999999269999989 16 632 115 0 ?634 635 630 631 0 0 1 30 633 122 0 635 631 636 0
 +.0569999990299984 .006 0 0 0 -1 16 635 120 0 ?637 638 632 633 0 0 1 31 636 127
 0 638 633 639 0 +.0579999995699984 .006 -.00800000304999839 0 1 0 0 0 1 .001000
000539999996 16 638 125 0 ?244 640 635 636 0 0 1 30 639 132 0 640 636 641 0 +0 .
006 -.00700000250999839 1 0 0 16 640 130 0 ?247 642 638 639 0 0 1 31 641 137 0 6
42 639 643 0 +.0642499997699984 .006 -.00508000126999839 0 1 0 0 0 1 .0019200012
39999995 16 642 135 0 ?644 645 640 641 0 0 1 30 643 142 0 645 641 646 0 +.066170
0010099984 .006 -903831922499918e-31 1365923996832564e-30 0 1 16 645 140 0 ?253
 647 642 643 0 0 1 31 646 147 0 647 643 648 0 +.0642499997699984 .006 .005079998
72999837 0 1 0 0 0 1 .00192000124000001 16 647 145 0 ?649 650 645 646 0 0 1 30 6
48 152 0 650 646 651 0 +0 .006 .00699999996999838 1 0 0 16 650 150 0 ?652 653 64
7 648 0 0 1 31 651 157 0 653 648 654 0 +.0559999984900016 .006 .0079999992400000
1 0 1 0 0 0 1 .000999999270001631 16 653 155 0 ?262 655 650 651 0 0 1 30 654 162
 0 655 651 656 0 +.05499999922 .006 0 0 0 -1 16 655 160 0 ?657 658 653 654 0 0 1
 31 656 167 0 658 654 659 0 +.05349999968 .006 .04849999952 0 1 0 0 0 1 .0014999
99540000004 16 658 165 0 ?660 661 655 656 0 0 1 31 659 172 0 661 656 662 0 +.084
99999383 .006 1135113740213604e-23 0 1 0 0 0 1 635000000000076e-19 16 661 170 0
 ?663 664 658 659 0 0 1 31 662 179 0 664 659 665 0 +.0695000007 .006 .0052499996
6000002 0 1 0 0 0 1 .00100000054000002 16 664 177 0 ?666 667 661 662 0 0 1 30 66
5 184 0 667 662 668 0 +0 .006 .004249999119999995 1 0 0 16 667 182 0 ?274 669 66
4 665 0 0 1 31 668 189 0 669 665 670 0 +.07549999886 .006 .00524999966 0 1 0 0 0
 1 .00100000054 16 669 187 0 ?671 672 667 668 0 0 1 30 670 194 0 672 668 673 0 +
.0764999994 .006 0 0 0 -1 16 672 192 0 ?674 675 669 670 0 0 1 31 673 200 0 675 6
70 676 0 +.07549999886 .006 .00875000281999998 0 1 0 0 0 1 .00100000054 16 675 1
98 0 ?677 678 672 673 0 0 1 30 676 205 0 678 673 679 0 +0 .006 .00975000336 1 0
 0 16 678 203 0 ?680 681 675 676 0 0 1 31 679 210 0 681 676 682 0 +.0695000007 .
006 .00875000281999997 0 1 0 0 0 1 .00100000054000002 16 681 208 0 ?683 684 678
 679 0 0 1 30 682 215 0 684 679 685 0 +.06850000016 .006 0 0 0 -1 16 684 213 0 ?
292 686 681 682 0 0 1 31 685 221 0 686 682 324 0 +.06249999946 .006 -.0238500005
6 0 1 0 0 0 1 .00127 16 686 219 0 ?173 318 684 685 0 0 1 31 324 226 0 318 685 31
9 0 +.06376999946 .006 -.02385000056 0 1 0 0 0 1 635000000000219e-19 16 318 224
 0 ?317 305 686 324 0 0 1 17 317 0 687 25 297 293 313 318 0 0 +15 687 1021 0 688
 689 0 17 25 0 687 688 317 156 295 10 0 172 +17 297 0 687 317 688 296 160 26 0 3
13 -17 688 0 687 297 25 158 461 459 0 306 -17 160 0 299 301 300 158 297 26 0 688
 +17 461 0 690 458 306 156 688 459 0 0 +17 306 0 690 461 308 158 301 307 0 0 +15
 690 543 0 458 576 691 17 308 0 690 306 168 161 310 463 0 0 +17 168 0 690 308 45
8 163 166 465 0 310 -17 310 0 309 37 162 163 308 463 0 0 -17 458 0 690 168 461 2
2 172 456 0 0 +17 166 0 165 36 164 22 168 465 0 458 +15 165 1015 0 166 692 0 17
 36 0 165 34 166 11 169 174 0 173 -17 34 0 165 164 36 29 28 35 0 33 -17 173 0 17
1 169 295 11 32 686 0 0 +15 171 1023 0 172 16 0 17 295 0 171 173 172 293 25 10 0
 32 -17 32 0 31 313 28 293 173 686 0 317 -17 172 0 171 295 169 156 458 456 0 461
 -14 255 16 1024 693 ?689 0 171 5 694 +0 0 689 0 24 81 1 693 1822 695 16 696 0 0
 697 698 14 689 1022 697 ?304 16 687 5 699 +0 0 304 16 24 51 255 694 1115 0 16 6
99 700 0 -.06249999946 .006 -.02385000056 0 -1 0 .00127 0 0 -1 13 24 406 0 0 0 0
 0 0 9 16 51 699 1114 0 689 701 694 0 -.06376999946 .006 -.02385000056 0 -1 0 63
5000000000219e-19 0 0 -1 50 700 1116 0 702 694 703 0 +.06850000016 .006 0 -1 0 0
 0 0 1 14 702 1026 704 ?705 692 706 5 700 -0 0 705 692 24 51 703 1117 0 707 700
 708 0 -.0695000007 .006 .00875000281999997 0 -1 0 .00100000054000002 0 0 -1 14
 707 1028 709 ?18 710 711 5 703 +0 0 18 710 24 50 708 1118 0 710 703 712 0 +0 .0
06 .00975000336 0 0 -1 -1 0 0 14 710 1030 713 ?707 714 715 5 708 +0 0 707 714 24
 51 712 1119 0 714 708 716 0 -.07549999886 .006 .00875000281999998 0 -1 0 .00100
000054 0 0 -1 14 714 1032 717 ?710 718 719 5 712 +0 0 710 718 24 50 716 1120 0 7
18 712 720 0 +.0764999994 .006 0 -1 0 0 0 0 1 14 718 1034 721 ?714 722 723 5 716
 +0 0 714 722 24 51 720 1121 0 722 716 724 0 -.07549999886 .006 .00524999966 0 -
1 0 .00100000054 0 0 -1 14 722 1036 725 ?718 726 727 5 720 +0 0 718 726 24 50 72
4 1122 0 726 720 728 0 +0 .006 .004249999119999995 0 0 -1 -1 0 0 14 726 1038 729
 ?722 730 731 5 724 -0 0 722 730 24 51 728 1123 0 730 724 732 0 -.0695000007 .00
6 .00524999966000002 0 -1 0 .00100000054000002 0 0 -1 14 730 1040 733 ?726 320 7
34 5 728 +0 0 726 320 24 51 732 1124 0 705 728 735 0 -.08499999383 .006 11351137
40213604e-23 0 -1 0 635000000000076e-19 0 0 -1 14 705 1042 736 ?737 702 738 5 73
2 +0 0 737 702 24 51 735 1125 0 737 732 739 0 -.05349999968 .006 .04849999952 0
 -1 0 .001499999540000004 0 0 -1 14 737 1046 740 ?741 705 742 5 735 +0 0 741 705
 24 50 739 1126 0 743 735 744 0 +.05499999922 .006 0 -1 0 0 0 0 1 14 743 1048 74
5 ?746 747 748 5 739 +0 0 746 747 24 51 744 1127 0 747 739 749 0 -.0559999984900
016 .006 .00799999924000001 0 -1 0 .000999999270001631 0 0 -1 14 747 1050 750 ?7
43 751 752 5 744 -0 0 743 751 24 50 749 1128 0 751 744 753 0 +0 .006 .0069999999
6999838 0 0 -1 -1 0 0 14 751 1052 754 ?747 755 756 5 749 +0 0 747 755 24 51 753
 1129 0 755 749 757 0 -.0642499997699984 .006 .00507999872999837 0 -1 0 .0019200
0124000001 0 0 -1 14 755 1054 758 ?751 759 760 5 753 +0 0 751 759 24 50 757 1130
 0 759 753 761 0 +.0661700010099984 .006 -903831922499918e-31 1 0 -1365923996832
564e-30 -1365923996832564e-30 0 -1 14 759 1056 762 ?755 763 764 5 757 -0 0 755 7
63 24 51 761 1131 0 763 757 765 0 -.0642499997699984 .006 -.00508000126999839 0
 -1 0 .001920001239999995 0 0 -1 14 763 1058 766 ?759 767 768 5 761 +0 0 759 767
 24 50 765 1132 0 767 761 769 0 +0 .006 -.00700000250999839 0 0 -1 -1 0 0 14 767
 1060 770 ?763 771 772 5 765 -0 0 763 771 24 51 769 1133 0 771 765 773 0 -.05799
99995699984 .006 -.00800000304999839 0 -1 0 .001000000539999996 0 0 -1 14 771 10
62 774 ?767 775 776 5 769 -0 0 767 775 24 50 773 1134 0 775 769 777 0 +.05699999
90299984 .006 0 -1 0 0 0 0 1 14 775 1064 778 ?771 779 780 5 773 +0 0 771 779 24
 51 777 1135 0 779 773 781 0 -.0559999997599984 .006 -.0105000031299984 0 -1 0 .
000999999269999989 0 0 -1 14 779 1066 782 ?775 783 784 5 777 +0 0 775 783 24 51
 781 1136 0 783 777 785 0 -.0559999997599984 .006 -.0125000042099984 0 -1 0 .001
00000181000001 0 0 -1 14 783 1068 786 ?779 787 788 5 781 -0 0 779 787 24 50 785
 1137 0 787 781 789 0 +.0549999970680533 .006 3880555423203605e-24 -1 0 -7055555
69103405e-22 -705555569103405e-22 0 1 14 787 1070 790 ?783 791 792 5 785 +0 0 78
3 791 24 51 789 1138 0 791 785 793 0 -.0550000004899983 .006 -.0485000032241651
 0 -1 0 635000000000086e-19 0 0 -1 14 791 1072 794 ?787 795 796 5 789 +0 0 787 7
95 24 51 793 1139 0 795 789 797 0 -.0535000009499984 .006 -.0485000033299984 0 -
1 0 .001499999539999996 0 0 -1 14 795 1074 798 ?791 799 800 5 793 +0 0 791 799 2
4 51 797 1140 0 799 793 801 0 -.0535000009499984 .006 -.0500000028699984 0 -1 0
 635000000000065e-19 0 0 -1 14 799 1076 802 ?795 803 804 5 797 +0 0 795 803 24 5
0 801 1141 0 803 797 805 0 +0 .006 -.0500000028699984 0 0 -1 -1 0 0 14 803 1078
 806 ?799 807 808 5 801 -0 0 799 807 24 50 805 1142 0 807 801 809 0 +-.086399973
5099774 .006 438911871600529e-22 -.999999999999871 0 508000007140959e-21 5080000
07140959e-21 0 .999999999999871 14 807 1080 810 ?803 811 812 5 805 +0 0 803 811
 24 51 809 1143 0 811 805 813 0 --.07950000356 .006 -.05500000049 0 -1 0 .006899
99788999971 0 0 -1 14 811 1082 814 ?807 815 816 5 809 -0 0 807 815 24 50 813 114
4 0 815 809 817 0 +-593303895073352e-23 .006 -.0619000059999764 -958487621267074
e-22 0 -1 -1 0 958487621267074e-22 14 815 1084 818 ?811 819 820 5 813 +0 0 811 8
19 24 50 817 1145 0 819 813 821 0 +593305707775319e-23 .006 -.0619000059999992 9
58490549702571e-22 0 -1 -1 0 -958490549702571e-22 14 819 1086 822 ?815 823 824 5
 817 +0 0 815 823 24 51 821 1146 0 823 817 825 0 -.07949999848 .006 -.0550000004
9 0 -1 0 .00689999789 0 0 -1 14 823 1088 826 ?819 827 828 5 821 -0 0 819 827 24
 50 825 1147 0 827 821 829 0 +.0863999938300003 .006 3990108010767005e-24 -1 0 -
461818089781105e-22 -461818089781105e-22 0 1 14 827 1090 830 ?823 831 832 5 825
 -0 0 823 831 24 50 829 1148 0 831 825 833 0 +.0863999938299992 .006 -3990109830
926395e-24 1 0 -461818300447722e-22 -461818300447722e-22 0 -1 14 831 1092 834 ?8
27 835 836 5 829 +0 0 827 835 24 51 833 1149 0 835 829 837 0 -.07949999848 .006
 .05499999795 0 -1 0 .00689999789 0 0 -1 14 835 1094 838 ?831 839 840 5 833 -0 0
 831 839 24 50 837 1150 0 839 833 841 0 +593305660039001e-23 .006 .0619000034599
989 -958490511914762e-22 0 -1 -1 0 958490511914762e-22 14 839 1096 842 ?835 584
 843 5 837 -0 0 835 584 24 50 841 1151 0 584 837 844 0 +-593305707201018e-23 .00
6 .06190000346 958490588105397e-22 0 -1 -1 0 -958490588105397e-22 14 584 1098 84
5 ?839 581 583 5 841 -0 0 839 581 24 51 844 1152 0 581 841 19 0 --.07950000356 .
006 .05499999922 0 -1 0 .00689999661999999 0 0 -1 14 581 1100 846 ?584 571 565 5
 844 -0 0 584 571 24 50 19 1153 0 571 844 6 0 +-.08640000018 .006 0 -1 0 0 0 0 1
 14 571 1102 847 ?581 18 568 5 19 +0 0 581 18 24 81 1 847 1861 695 571 848 0 846
 849 850 14 18 1104 849 ?571 707 178 5 6 +0 0 571 707 24 81 1 849 1862 695 18 85
1 0 847 852 853 80 255 1 695 854 855 9000 1 1 1 1 1 1 1 1 0 FFFFTFTFFFFFFF1 81 1
 851 1665 856 18 0 849 857 848 858 81 1 852 1863 695 320 859 0 849 860 861 82 25
5 1 853 966721657 14 320 1018 852 ?730 304 309 5 862 +0 0 730 304 24 81 1 859 16
57 856 320 0 852 863 864 865 81 1 860 1864 695 304 863 0 852 866 867 82 1 861 95
7677689 14 304 1020 860 ?320 689 299 5 701 +0 0 320 689 24 81 1 863 1656 856 304
 0 860 868 859 869 81 1 866 1865 695 746 870 0 860 871 872 82 1 867 957874297 14
 746 996 866 ?873 743 874 5 875 +0 0 873 743 24 81 1 870 1694 856 746 0 866 876
 877 878 81 1 871 1866 695 873 877 0 866 879 880 82 1 872 956104825 14 873 1000
 871 ?881 746 882 5 883 +0 0 881 746 24 81 1 877 1695 856 873 0 871 870 884 885
 81 1 879 1867 695 881 884 0 871 886 887 82 1 880 956366969 14 881 1004 879 ?888
 873 889 5 890 +0 0 888 873 24 81 1 884 1696 856 881 0 879 877 891 892 81 1 886
 1868 695 888 891 0 879 893 894 82 1 887 956629113 14 888 1008 886 ?895 881 896
 5 897 +0 0 895 881 24 81 1 891 1697 856 888 0 886 884 898 899 81 1 893 1869 695
 895 898 0 886 900 901 82 1 894 956891257 14 895 1012 893 ?692 888 902 5 903 +0
 0 692 888 24 81 1 898 1698 856 895 0 893 891 904 905 81 1 900 1870 695 692 904
 0 893 906 907 82 1 901 957153401 14 692 1016 900 ?702 895 165 5 908 -0 0 702 89
5 24 81 1 904 1699 856 692 0 900 898 909 910 81 1 906 1871 695 741 911 0 900 912
 913 82 1 907 957415545 14 741 992 906 ?314 737 914 5 915 +0 0 314 737 24 81 1 9
11 1703 856 741 0 906 916 917 918 81 1 912 1872 695 314 917 0 906 919 920 82 1 9
13 955842681 14 314 1 912 ?576 741 588 5 921 +0 0 576 741 24 81 1 917 1704 856 3
14 0 912 911 922 923 81 1 919 1873 695 576 922 0 912 0 924 82 1 920 878116985 14
 576 539 919 ?0 314 574 5 925 -0 0 0 314 24 81 1 922 1705 856 576 0 919 917 0 92
6 82 1 924 927072377 80 1 856 0 927 8001 0 0 0 0 3 5 0 0 0 FFFFTFTFFFFFFF2 83 25
5 3 926 1 1 1 79 255 15 927 SDL/TYSA_COLOUR50 925 854 0 576 921 915 0 +0 0 0 0 1
 0 0 0 1 50 921 3 0 314 0 925 0 +0 .006 0 0 1 0 0 0 1 51 915 1105 0 741 925 875
 0 --.0699999997 .006 -.05400000122 0 -1 0 .001599999340000005 0 0 -1 51 875 110
6 0 746 915 883 0 -.0699999997 .006 -.05400000122 0 -1 0 .00159999934000002 0 0
 -1 51 883 1107 0 873 875 890 0 -.0699999997 .006 .05400000122 0 -1 0 .001599999
34000002 0 0 -1 51 890 1108 0 881 883 897 0 --.0699999997 .006 .05400000122 0 -1
 0 .001599999340000005 0 0 -1 51 897 1109 0 888 890 903 0 -.07899999948 .006 -.0
4554000036 0 -1 0 .00179999893999999 0 0 -1 51 903 1110 0 895 897 908 0 -.078999
99948 .006 -.04046000036 0 -1 0 .00179999893999999 0 0 -1 50 908 1111 0 692 903
 862 0 +.06122999946 .006 0 -1 0 0 0 0 1 51 862 1112 0 320 908 701 0 -.062499999
46 .006 -.01115000056 0 -1 0 .00127 0 0 -1 50 701 1113 0 304 862 699 0 +.0637699
9946 .006 0 -1 0 0 0 0 1 83 3 923 1 1 1 15 588 4 0 181 314 928 17 181 0 588 572
 929 170 179 485 0 570 -15 928 5 0 930 314 931 17 930 0 928 930 930 0 663 661 0
 0 -15 931 6 0 932 314 31 17 932 0 931 274 292 269 666 664 0 0 -17 274 0 931 933
 932 272 934 667 0 935 +17 292 0 931 932 936 290 937 684 0 938 +17 666 0 734 155
 271 290 932 664 0 0 +15 734 1039 0 939 730 0 17 155 0 734 939 666 153 938 490 0
 455 +17 271 0 734 666 939 269 134 487 0 934 -17 939 0 734 271 155 132 434 432 0
 0 -17 134 0 731 437 934 132 271 487 0 940 +17 934 0 731 134 935 269 274 667 0 9
32 -15 731 1037 0 437 726 0 17 935 0 731 934 437 272 137 502 0 671 -17 437 0 731
 935 134 135 940 435 0 440 +17 137 0 727 941 671 135 935 502 0 437 +17 671 0 727
 137 277 272 933 669 0 0 +15 727 1035 0 941 722 0 17 277 0 727 671 941 275 140 5
00 0 933 -17 933 0 931 942 274 275 671 669 0 674 -17 942 0 931 943 933 278 674 6
72 0 677 -17 674 0 723 140 280 275 942 672 0 0 +15 723 1033 0 944 718 0 17 140 0
 723 944 674 138 277 500 0 941 +17 280 0 723 674 944 278 143 498 0 942 -17 944 0
 723 280 140 141 443 441 0 446 -17 143 0 719 945 677 141 280 498 0 944 +15 719 1
031 0 945 714 0 17 945 0 719 283 143 144 446 444 0 449 -17 677 0 719 143 283 278
 943 675 0 0 +17 283 0 719 677 945 281 146 496 0 943 -17 943 0 931 946 942 281 6
77 675 0 680 -17 946 0 931 936 943 284 680 678 0 683 -17 680 0 715 146 286 281 9
46 678 0 0 +15 715 1029 0 947 710 0 17 146 0 715 947 680 144 283 496 0 945 +17 2
86 0 715 680 947 284 149 494 0 946 -17 947 0 715 286 146 147 449 447 0 452 -17 1
49 0 711 948 683 147 286 494 0 947 +15 711 1027 0 948 707 0 17 948 0 711 289 149
 150 452 450 0 0 -17 683 0 711 149 289 284 936 681 0 0 +17 289 0 711 683 948 287
 152 492 0 937 -17 936 0 931 292 946 287 683 681 0 0 -17 152 0 706 455 937 150 2
89 492 0 949 +17 937 0 706 152 938 287 292 684 0 936 -15 706 1025 0 455 702 0 17
 938 0 706 937 455 290 155 490 0 666 -17 455 0 706 938 152 153 949 453 0 434 +17
 949 0 950 452 434 150 455 453 0 948 -17 434 0 950 949 940 153 939 432 0 0 +15 9
50 542 0 434 576 690 17 940 0 950 434 440 132 437 435 0 939 -17 440 0 950 940 44
3 135 941 438 0 0 +17 443 0 950 440 446 138 944 441 0 0 +17 941 0 727 277 137 13
8 440 438 0 443 -17 446 0 950 443 449 141 945 444 0 0 +17 449 0 950 446 452 144
 947 447 0 0 +17 452 0 950 449 949 147 948 450 0 0 +17 663 0 738 663 663 0 930 6
61 0 0 +15 738 1041 0 663 705 951 15 951 1043 0 952 705 0 17 952 0 951 952 952 0
 431 429 0 0 -17 431 0 577 431 431 0 952 429 0 0 +15 577 541 0 431 576 950 17 57
2 0 588 187 181 176 570 573 0 0 -17 929 0 588 181 953 266 660 658 0 0 -17 179 0
 178 131 175 266 181 485 0 929 +16 485 14 0 ?179 573 482 954 0 0 1 16 573 21 0 ?
570 590 485 595 0 0 1 30 954 16 0 485 0 595 0 +0 .006 .04999999906 1 0 0 30 595
 23 0 573 954 594 0 +-.08640000018 .006 0 0 0 -1 17 953 0 588 929 262 263 657 65
5 0 660 -17 660 0 742 128 268 263 929 658 0 0 +15 742 1045 0 575 737 0 17 128 0
 742 575 660 126 265 506 0 955 +17 268 0 742 660 575 266 131 343 0 179 -17 575 0
 742 268 128 129 428 426 0 0 -17 428 0 574 425 346 126 575 426 0 0 +17 425 0 574
 956 428 123 955 423 0 0 +17 956 0 574 419 425 120 422 420 0 957 -17 955 0 748 2
65 125 126 425 423 0 428 -15 748 1047 0 955 743 0 17 265 0 748 657 955 263 128 5
06 0 953 -17 125 0 748 955 657 123 958 508 0 422 +17 657 0 748 125 265 260 953 6
55 0 0 +17 958 0 752 959 422 260 125 508 0 657 -17 422 0 752 958 122 123 956 420
 0 425 +15 752 1049 0 422 747 0 17 122 0 752 422 959 120 259 510 0 956 +17 959 0
 752 122 958 257 262 653 0 960 -17 259 0 756 652 957 257 122 510 0 959 -15 756 1
051 0 957 751 0 17 652 0 756 119 259 254 960 650 0 0 +17 957 0 756 259 119 120 4
19 417 0 0 -17 119 0 756 957 652 117 256 512 0 961 +17 419 0 574 416 956 117 957
 417 0 0 +17 416 0 574 962 419 114 961 414 0 0 +17 962 0 574 410 416 111 413 411
 0 963 -17 961 0 760 256 116 117 416 414 0 419 -15 760 1053 0 961 755 0 17 256 0
 760 649 961 254 119 512 0 964 -17 116 0 760 961 649 114 965 514 0 413 +17 649 0
 760 116 256 251 964 647 0 0 +17 965 0 764 966 413 251 116 514 0 649 -17 413 0 7
64 965 113 114 962 411 0 416 +15 764 1055 0 413 759 0 17 113 0 764 413 966 111 2
50 516 0 962 +17 966 0 764 113 965 248 253 645 0 967 -17 250 0 768 644 963 248 1
13 516 0 966 -15 768 1057 0 963 763 0 17 644 0 768 110 250 245 967 642 0 0 +17 9
63 0 768 250 110 111 410 408 0 0 -17 110 0 768 963 644 108 968 518 0 407 +17 410
 0 574 969 962 108 963 408 0 0 +17 969 0 574 970 410 105 407 405 0 0 -17 970 0 5
74 402 969 102 107 403 0 971 -17 407 0 772 968 522 108 969 405 0 410 +15 772 105
9 0 407 767 0 17 968 0 772 972 407 245 110 518 0 644 -17 522 0 772 407 972 105 9
73 520 0 969 +17 972 0 772 522 968 242 247 640 0 0 -17 973 0 776 974 107 242 522
 520 0 972 -15 776 1061 0 107 771 0 17 974 0 776 104 973 239 244 638 0 975 -17 1
07 0 776 973 104 105 970 403 0 522 +17 104 0 776 107 974 102 241 523 0 970 +17 2
41 0 780 637 971 239 104 523 0 974 -15 780 1063 0 971 775 0 17 637 0 780 101 241
 236 975 635 0 0 +17 971 0 780 241 101 102 402 400 0 0 -17 101 0 780 971 637 99
 238 525 0 976 +17 402 0 574 399 970 99 971 400 0 0 +17 399 0 574 977 402 96 976
 397 0 0 +17 977 0 574 393 399 93 396 394 0 978 -17 976 0 784 238 98 99 399 397
 0 402 -15 784 1065 0 976 779 0 17 238 0 784 634 976 236 101 525 0 979 -17 98 0
 784 976 634 96 980 527 0 396 +17 634 0 784 98 238 233 979 632 0 0 +17 980 0 788
 981 396 233 98 527 0 634 -17 396 0 788 980 95 96 977 394 0 399 +15 788 1067 0 3
96 783 0 17 95 0 788 396 981 93 232 529 0 977 +17 981 0 788 95 980 230 235 630 0
 982 -17 232 0 792 629 978 230 95 529 0 981 -15 792 1069 0 978 787 0 17 629 0 79
2 92 232 227 982 627 0 0 +17 978 0 792 232 92 93 393 391 0 0 -17 92 0 792 978 62
9 90 229 531 0 983 +17 393 0 574 390 977 90 978 391 0 0 +17 390 0 574 387 393 87
 983 388 0 0 +17 387 0 574 384 390 84 984 385 0 0 +17 983 0 796 229 89 90 390 38
8 0 393 -15 796 1071 0 983 791 0 17 229 0 796 626 983 227 92 531 0 985 -17 89 0
 796 983 626 87 226 533 0 984 +17 626 0 796 89 229 224 985 624 0 0 +17 226 0 800
 623 984 224 89 533 0 986 -17 984 0 800 226 86 87 387 385 0 390 -15 800 1073 0 9
84 795 0 17 86 0 800 984 623 84 223 535 0 987 +17 623 0 800 86 226 221 986 621 0
 0 +17 223 0 804 620 987 221 86 535 0 988 -17 987 0 804 223 83 84 384 382 0 387
 -15 804 1075 0 987 799 0 17 83 0 804 987 620 81 989 537 0 381 +17 384 0 574 990
 387 81 987 382 0 0 +17 990 0 574 378 384 78 381 379 0 991 -17 378 0 574 992 990
 75 991 376 0 0 +17 381 0 808 989 80 81 990 379 0 384 +17 991 0 812 217 77 78 37
8 376 0 0 -15 812 1079 0 991 807 0 17 217 0 812 615 991 215 80 539 0 993 -17 77
 0 812 991 615 75 994 541 0 375 +17 615 0 812 77 217 212 995 613 0 0 +17 994 0 8
16 996 375 212 77 541 0 615 -17 375 0 816 994 74 75 992 373 0 378 +15 816 1081 0
 375 811 0 17 74 0 816 375 996 72 211 543 0 992 +17 992 0 574 372 378 72 375 373
 0 997 -17 372 0 574 369 992 69 997 370 0 0 +17 997 0 820 211 71 72 372 370 0 0
 -15 820 1083 0 997 815 0 17 211 0 820 610 997 209 74 543 0 996 -17 71 0 820 997
 610 69 208 545 0 998 +17 610 0 820 71 211 206 999 608 0 0 +17 208 0 824 607 998
 206 71 545 0 1000 -17 998 0 824 208 68 69 369 367 0 372 -15 824 1085 0 998 819
 0 17 68 0 824 998 607 66 1001 547 0 366 +17 369 0 574 1002 372 66 998 367 0 0 +
17 1002 0 574 1003 369 63 366 364 0 0 -17 1003 0 574 361 1002 60 65 362 0 1004 -
17 366 0 828 1001 551 66 1002 364 0 369 +15 828 1087 0 366 823 0 17 1001 0 828 1
005 366 203 68 547 0 607 -17 551 0 828 366 1005 63 1006 549 0 1002 +17 1005 0 82
8 551 1001 200 205 603 0 0 -17 1006 0 832 1007 65 200 551 549 0 1005 -15 832 108
9 0 65 827 0 17 1007 0 832 62 1006 197 202 601 0 1008 -17 65 0 832 1006 62 63 10
03 362 0 551 +17 62 0 832 65 1007 60 199 552 0 1003 +17 199 0 836 600 1004 197 6
2 552 0 1007 -15 836 1091 0 1004 831 0 17 600 0 836 59 199 194 1008 598 0 0 +17
 1004 0 836 199 59 60 361 359 0 0 -17 59 0 836 1004 600 57 1009 554 0 358 +17 36
1 0 574 1010 1003 57 1004 359 0 0 +17 1010 0 574 579 361 54 358 356 0 0 -17 579
 0 574 578 1010 51 56 354 0 0 -17 358 0 840 1009 558 57 1010 356 0 361 +15 840 1
093 0 358 835 0 17 1009 0 840 1011 358 194 59 554 0 600 -17 558 0 840 358 1011 5
4 1012 556 0 1010 +17 1011 0 840 558 1009 191 196 592 0 0 -17 1012 0 843 587 56
 191 558 556 0 1011 -15 843 1095 0 56 839 0 17 587 0 843 561 1012 188 193 589 0
 0 -17 56 0 843 1012 561 54 579 354 0 558 +17 561 0 843 56 587 51 585 559 0 579
 +17 193 0 588 196 190 191 587 589 0 1012 +17 196 0 588 1008 193 194 1011 592 0
 1009 +17 1008 0 588 202 196 197 600 598 0 0 -17 202 0 588 205 1008 200 1007 601
 0 1006 +17 205 0 588 1000 202 203 1005 603 0 1001 +17 1000 0 588 999 205 206 60
7 605 0 610 -17 999 0 588 214 1000 209 610 608 0 0 -17 607 0 824 68 208 203 1000
 605 0 0 +17 214 0 588 995 999 212 996 611 0 994 +17 995 0 588 220 214 215 615 6
13 0 0 -17 996 0 816 74 994 209 214 611 0 999 -17 220 0 588 988 995 218 993 616
 0 989 +17 988 0 588 986 220 221 620 618 0 623 -17 993 0 808 80 989 215 220 616
 0 995 -17 989 0 808 993 381 218 83 537 0 620 -15 808 1077 0 381 803 0 17 620 0
 804 83 223 218 988 618 0 0 +17 80 0 808 381 993 78 217 539 0 990 +17 986 0 588
 985 988 224 623 621 0 626 -17 985 0 588 982 986 227 626 624 0 629 -17 982 0 588
 235 985 230 629 627 0 0 -17 235 0 588 979 982 233 981 630 0 980 +17 979 0 588 9
75 235 236 634 632 0 637 -17 975 0 588 244 979 239 637 635 0 0 -17 244 0 588 247
 975 242 974 638 0 973 +17 247 0 588 967 244 245 972 640 0 968 +17 967 0 588 253
 247 248 644 642 0 0 -17 253 0 588 964 967 251 966 645 0 965 +17 964 0 588 960 2
53 254 649 647 0 652 -17 960 0 588 262 964 257 652 650 0 0 -17 262 0 588 953 960
 260 959 653 0 958 +17 187 0 588 190 572 183 566 590 0 580 +17 566 0 565 47 580
 176 187 590 0 572 -81 1 916 1702 856 737 0 740 1013 911 1014 83 3 918 1 1 1 81
 1 740 1833 695 737 916 0 736 745 1015 81 1 1013 1701 856 705 0 736 909 916 1016
 83 3 1014 1 1 1 81 1 736 1832 695 705 1013 0 733 740 1017 81 1 909 1700 856 702
 0 704 904 1013 1018 83 3 1016 1 1 1 81 1 704 1824 695 702 909 0 697 709 1019 83
 3 1018 1 1 1 81 1 697 1823 695 689 868 0 693 704 1020 81 1 709 1825 695 707 857
 0 704 713 1021 82 1 1019 958333049 81 1 857 1664 856 707 0 709 1022 851 1023 81
 1 713 1826 695 710 1022 0 709 717 1024 82 1 1021 958595193 81 1 1022 1663 856 7
10 0 713 1025 857 1026 81 1 717 1827 695 714 1025 0 713 721 1027 82 1 1024 95879
1801 81 1 1025 1662 856 714 0 717 1028 1022 1029 81 1 721 1828 695 718 1028 0 71
7 725 1030 82 1 1027 958922873 81 1 1028 1661 856 718 0 721 1031 1025 1032 81 1
 725 1829 695 722 1031 0 721 729 1033 82 1 1030 959053945 81 1 1031 1660 856 722
 0 725 1034 1028 1035 81 1 729 1830 695 726 1034 0 725 733 1036 82 1 1033 959185
017 81 1 1034 1659 856 726 0 729 864 1031 1037 81 1 733 1831 695 730 864 0 729 7
36 1038 82 1 1036 959316089 81 1 864 1658 856 730 0 733 859 1034 1039 82 1 1038
 959643769 83 3 1039 1 1 1 83 3 1037 1 1 1 83 3 1035 1 1 1 83 3 1032 1 1 1 83 3
 1029 1 1 1 83 3 1026 1 1 1 83 3 1023 1 1 1 81 1 868 1655 856 689 0 697 696 863
 1040 82 1 1020 958005369 81 1 696 1654 856 16 0 693 0 868 1041 83 3 1040 1 1 1
 83 3 1041 1 1 1 82 1 1017 959905913 81 1 745 1834 695 743 876 0 740 750 1042 82
 1 1015 960168057 81 1 876 1693 856 743 0 745 1043 870 1044 81 1 750 1835 695 74
7 1043 0 745 754 1045 82 1 1042 960299129 81 1 1043 1692 856 747 0 750 1046 876
 1047 81 1 754 1836 695 751 1046 0 750 758 1048 82 1 1045 960430201 81 1 1046 16
91 856 751 0 754 1049 1043 1050 81 1 758 1837 695 755 1049 0 754 762 1051 82 1 1
048 960757881 81 1 1049 1690 856 755 0 758 1052 1046 1053 81 1 762 1838 695 759
 1052 0 758 766 1054 82 1 1051 960954489 81 1 1052 1689 856 759 0 762 1055 1049
 1056 81 1 766 1839 695 763 1055 0 762 770 1057 82 1 1054 961085561 81 1 1055 16
88 856 763 0 766 1058 1052 1059 81 1 770 1840 695 767 1058 0 766 774 1060 82 1 1
057 961413241 81 1 1058 1687 856 767 0 770 1061 1055 1062 81 1 774 1841 695 771
 1061 0 770 778 1063 82 1 1060 961609849 81 1 1061 1686 856 771 0 774 1064 1058
 1065 81 1 778 1842 695 775 1064 0 774 782 1066 82 1 1063 961937529 81 1 1064 16
85 856 775 0 778 1067 1061 1068 81 1 782 1843 695 779 1067 0 778 786 1069 82 1 1
066 962199673 81 1 1067 1684 856 779 0 782 1070 1064 1071 81 1 786 1844 695 783
 1070 0 782 790 1072 82 1 1069 962396281 81 1 1070 1683 856 783 0 786 1073 1067
 1074 81 1 790 1845 695 787 1073 0 786 794 1075 82 1 1072 962527353 81 1 1073 16
82 856 787 0 790 1076 1070 1077 81 1 794 1846 695 791 1076 0 790 798 1078 82 1 1
075 962855033 81 1 1076 1681 856 791 0 794 1079 1073 1080 81 1 798 1847 695 795
 1079 0 794 802 1081 82 1 1078 963051641 81 1 1079 1680 856 795 0 798 1082 1076
 1083 81 1 802 1848 695 799 1082 0 798 806 1084 82 1 1081 963182713 81 1 1082 16
79 856 799 0 802 1085 1079 1086 81 1 806 1849 695 803 1085 0 802 810 1087 82 1 1
084 963313785 81 1 1085 1678 856 803 0 806 1088 1082 1089 81 1 810 1850 695 807
 1088 0 806 814 1090 82 1 1087 963444857 81 1 1088 1677 856 807 0 810 1091 1085
 1092 81 1 814 1851 695 811 1091 0 810 818 1093 82 1 1090 963772537 81 1 1091 16
76 856 811 0 814 1094 1088 1095 81 1 818 1852 695 815 1094 0 814 822 1096 82 1 1
093 963969145 81 1 1094 1675 856 815 0 818 1097 1091 1098 81 1 822 1853 695 819
 1097 0 818 826 1099 82 1 1096 964296825 81 1 1097 1674 856 819 0 822 1100 1094
 1101 81 1 826 1854 695 823 1100 0 822 830 1102 82 1 1099 964493433 81 1 1100 16
73 856 823 0 826 1103 1097 1104 81 1 830 1855 695 827 1103 0 826 834 1105 82 1 1
102 964624505 81 1 1103 1672 856 827 0 830 1106 1100 1107 81 1 834 1856 695 831
 1106 0 830 838 1108 82 1 1105 964952185 81 1 1106 1671 856 831 0 834 1109 1103
 1110 81 1 838 1857 695 835 1109 0 834 842 1111 82 1 1108 965214329 81 1 1109 16
70 856 835 0 838 1112 1106 1113 81 1 842 1858 695 839 1112 0 838 845 1114 82 1 1
111 965410937 81 1 1112 1669 856 839 0 842 1115 1109 1116 81 1 845 1859 695 584
 1115 0 842 846 1117 82 1 1114 965738617 81 1 1115 1668 856 584 0 845 1118 1112
 1119 81 1 846 1860 695 581 1118 0 845 847 1120 82 1 1117 966000761 81 1 1118 16
67 856 581 0 846 848 1115 1121 82 1 1120 966262905 81 1 848 1666 856 571 0 847 8
51 1118 1122 83 3 1121 1 1 1 83 3 1122 1 1 1 83 3 1119 1 1 1 83 3 1116 1 1 1 83
 3 1113 1 1 1 83 3 1110 1 1 1 83 3 1107 1 1 1 83 3 1104 1 1 1 83 3 1101 1 1 1 83
 3 1098 1 1 1 83 3 1095 1 1 1 83 3 1092 1 1 1 83 3 1089 1 1 1 83 3 1086 1 1 1 83
 3 1083 1 1 1 83 3 1080 1 1 1 83 3 1077 1 1 1 83 3 1074 1 1 1 83 3 1071 1 1 1 83
 3 1068 1 1 1 83 3 1065 1 1 1 83 3 1062 1 1 1 83 3 1059 1 1 1 83 3 1056 1 1 1 83
 3 1053 1 1 1 83 3 1050 1 1 1 83 3 1047 1 1 1 83 3 1044 1 1 1 15 914 991 0 342 7
41 1123 17 342 0 914 342 342 0 1124 340 0 0 +15 1123 993 0 1125 741 0 17 1125 0
 1123 1125 1125 0 484 482 0 0 -17 484 0 1126 484 484 0 1125 482 0 0 +15 1126 549
 0 484 576 0 17 1124 0 1127 1124 1124 0 342 340 0 0 -15 1127 13 0 1124 314 0 83
 3 910 1 1 1 83 3 905 1 1 1 15 902 1011 0 327 895 1128 17 327 0 902 327 327 0 11
29 322 0 0 +15 1128 1013 0 1130 895 0 17 1130 0 1128 1130 1130 0 469 467 0 0 -17
 469 0 691 469 469 0 1130 467 0 0 +15 691 544 0 469 576 1131 15 1131 545 0 472 5
76 1132 17 472 0 1131 472 472 0 1133 470 0 0 +15 1132 546 0 475 576 1134 17 475
 0 1132 475 475 0 1135 473 0 0 +15 1134 547 0 478 576 1136 17 478 0 1134 478 478
 0 1137 476 0 0 +15 1136 548 0 481 576 1126 17 481 0 1136 481 481 0 1138 479 0 0
 +17 1138 0 1139 1138 1138 0 481 479 0 0 -15 1139 997 0 1138 746 0 17 1137 0 114
0 1137 1137 0 478 476 0 0 -15 1140 1001 0 1137 873 0 17 1135 0 1141 1135 1135 0
 475 473 0 0 -15 1141 1005 0 1135 881 0 17 1133 0 1142 1133 1133 0 472 470 0 0 -
15 1142 1009 0 1133 888 0 17 1129 0 315 1129 1129 0 327 322 0 0 -15 315 8 0 1129
 314 1143 15 1143 9 0 1144 314 1145 17 1144 0 1143 1144 1144 0 330 328 0 0 -15 1
145 10 0 1146 314 1147 17 1146 0 1145 1146 1146 0 333 331 0 0 -15 1147 11 0 1148
 314 1149 17 1148 0 1147 1148 1148 0 336 334 0 0 -15 1149 12 0 1150 314 1127 17
 1150 0 1149 1150 1150 0 339 337 0 0 -17 339 0 874 339 339 0 1150 337 0 0 +15 87
4 995 0 339 746 1139 17 336 0 882 336 336 0 1148 334 0 0 +15 882 999 0 336 873 1
140 17 333 0 889 333 333 0 1146 331 0 0 +15 889 1003 0 333 881 1141 17 330 0 896
 330 330 0 1144 328 0 0 +15 896 1007 0 330 888 1142 83 3 899 1 1 1 83 3 892 1 1
 1 83 3 885 1 1 1 83 3 878 1 1 1 83 3 869 1 1 1 83 3 865 1 1 1 83 3 858 1 1 1 79
 14 855 SWEntUnchanged82 1 850 966525049 82 1 698 958136441 17 182 0 568 570 569
 176 47 564 0 566 -19 17 1199 0 1 0 9 5 S0 74 4 CI16 index_map_offset0 0 1 dCCZ2
0 15 8 0 0 1151 1152 919 1153 1154 13 922 2 0 0 0 0 0 0 0 0 0 0 0 0 81 2 1151 40
4 1155 1 0 1152 0 0 0 1156 81 2 1152 1438 1157 1 1151 1153 0 0 0 1158 81 1 1153
 1491 1159 1 1152 1154 0 0 1160 81 2 1154 1492 1161 1 1153 13 0 0 0 0 81 2 13 15
51 1162 1 1154 2 0 0 0 1163 80 2 1162 1164 1165 9000 0 0 0 0 3 5 0 0 0 FFTFFFFFF
FFFFF9 1 82 1 1163 1 79 24 1165 BODY_IN_LIGHTWEIGHT_PERM80 2 1161 1166 1167 9000
 0 0 0 0 3 5 0 0 0 FFTFFFFFFFFFFF9 1 79 16 1167 BODY_RECIPE_200180 1 1159 1168 1
169 9000 1 1 1 1 1 1 1 1 0 FFTFFFFFFFFFFF1 82 1 1160 11351125 79 10 1169 BODY_MA
TCH80 2 1157 1170 1171 9000 0 0 0 0 3 5 0 0 0 FFTFFFFFFFFFFF9 1 82 1 1158 36 79
 30 1171 LAST_BODY_MODIFYING_FEATURE_ID80 2 1155 1172 1173 9000 0 0 0 0 3 5 0 0
 0 FFTFFFFFFFFFFT9 1 82 1 1156 103 79 19 1173 ENT_TIME_STAMP_200180 2 12 1174 11
75 9000 0 0 0 0 3 5 0 0 0 FFTFFFFFFFFFFF9 1 82 1 14 101 79 12 1175 ATOM_ID_20011
 0 
