  0
SECTION
  2
HEADER
  9
$ACADVER
  1
AC1009
  9
$DWGCODEPAGE
  3
ansi_1252
  9
$INSBASE
 10
0.0
 20
0.0
 30
0.0
  9
$EXTMIN
 10
21.7589717007873
 20
27.97191030457577
 30
0.0
  9
$EXTMAX
 10
47.71134503872531
 20
32.47336509586574
 30
0.0
  9
$LIMMIN
 10
0.0
 20
0.0
  9
$LIMMAX
 10
12.0
 20
9.0
  9
$ORTHOMODE
 70
     0
  9
$REGENMODE
 70
     1
  9
$FILLMODE
 70
     1
  9
$QTEXTMODE
 70
     0
  9
$MIRRTEXT
 70
     1
  9
$DRAGMODE
 70
     2
  9
$LTSCALE
 40
1.0
  9
$OSMODE
 70
    37
  9
$ATTMODE
 70
     1
  9
$TEXTSIZE
 40
0.2
  9
$TRACEWID
 40
0.05
  9
$TEXTSTYLE
  7
STANDARD
  9
$CLAYER
  8
0
  9
$CELTYPE
  6
BYLAYER
  9
$CECOLOR
 62
   256
  9
$DIMSCALE
 40
1.0
  9
$DIMASZ
 40
0.18
  9
$DIMEXO
 40
0.0625
  9
$DIMDLI
 40
0.38
  9
$DIMRND
 40
0.0
  9
$DIMDLE
 40
0.0
  9
$DIMEXE
 40
0.18
  9
$DIMTP
 40
0.0
  9
$DIMTM
 40
0.0
  9
$DIMTXT
 40
0.18
  9
$DIMCEN
 40
0.09
  9
$DIMTSZ
 40
0.0
  9
$DIMTOL
 70
     0
  9
$DIMLIM
 70
     0
  9
$DIMTIH
 70
     1
  9
$DIMTOH
 70
     1
  9
$DIMSE1
 70
     0
  9
$DIMSE2
 70
     0
  9
$DIMTAD
 70
     0
  9
$DIMZIN
 70
     0
  9
$DIMBLK
  1

  9
$DIMASO
 70
     1
  9
$DIMSHO
 70
     1
  9
$DIMPOST
  1

  9
$DIMAPOST
  1

  9
$DIMALT
 70
     0
  9
$DIMALTD
 70
     2
  9
$DIMALTF
 40
25.4
  9
$DIMLFAC
 40
1.0
  9
$DIMTOFL
 70
     0
  9
$DIMTVP
 40
0.0
  9
$DIMTIX
 70
     0
  9
$DIMSOXD
 70
     0
  9
$DIMSAH
 70
     0
  9
$DIMBLK1
  1

  9
$DIMBLK2
  1

  9
$DIMSTYLE
  2
STANDARD
  9
$DIMCLRD
 70
     0
  9
$DIMCLRE
 70
     0
  9
$DIMCLRT
 70
     0
  9
$DIMTFAC
 40
1.0
  9
$DIMGAP
 40
0.09
  9
$LUNITS
 70
     2
  9
$LUPREC
 70
     4
  9
$SKETCHINC
 40
0.1
  9
$FILLETRAD
 40
0.5
  9
$AUNITS
 70
     0
  9
$AUPREC
 70
     0
  9
$MENU
  1
.
  9
$ELEVATION
 40
0.0
  9
$PELEVATION
 40
0.0
  9
$THICKNESS
 40
0.0
  9
$LIMCHECK
 70
     0
  9
$CHAMFERA
 40
0.0
  9
$CHAMFERB
 40
0.0
  9
$SKPOLY
 70
     0
  9
$TDCREATE
 40
2454910.5
  9
$TDUPDATE
 40
2459781.73601316
  9
$TDINDWG
 40
0.0000000116
  9
$TDUSRTIMER
 40
0.0000000116
  9
$USRTIMER
 70
     1
  9
$ANGBASE
 50
0.0
  9
$ANGDIR
 70
     0
  9
$PDMODE
 70
     0
  9
$PDSIZE
 40
0.0
  9
$PLINEWID
 40
0.0
  9
$COORDS
 70
     1
  9
$SPLFRAME
 70
     0
  9
$SPLINETYPE
 70
     6
  9
$SPLINESEGS
 70
     8
  9
$ATTDIA
 70
     0
  9
$ATTREQ
 70
     1
  9
$HANDLING
 70
     1
  9
$HANDSEED
  5
DA
  9
$SURFTAB1
 70
     6
  9
$SURFTAB2
 70
     6
  9
$SURFTYPE
 70
     6
  9
$SURFU
 70
     6
  9
$SURFV
 70
     6
  9
$UCSNAME
  2

  9
$UCSORG
 10
0.0
 20
0.0
 30
0.0
  9
$UCSXDIR
 10
1.0
 20
0.0
 30
0.0
  9
$UCSYDIR
 10
0.0
 20
1.0
 30
0.0
  9
$PUCSNAME
  2

  9
$PUCSORG
 10
0.0
 20
0.0
 30
0.0
  9
$PUCSXDIR
 10
1.0
 20
0.0
 30
0.0
  9
$PUCSYDIR
 10
0.0
 20
1.0
 30
0.0
  9
$USERI1
 70
     0
  9
$USERI2
 70
     0
  9
$USERI3
 70
     0
  9
$USERI4
 70
     0
  9
$USERI5
 70
     0
  9
$USERR1
 40
0.0
  9
$USERR2
 40
0.0
  9
$USERR3
 40
0.0
  9
$USERR4
 40
0.0
  9
$USERR5
 40
0.0
  9
$WORLDVIEW
 70
     1
  9
$SHADEDGE
 70
     3
  9
$SHADEDIF
 70
    70
  9
$TILEMODE
 70
     1
  9
$MAXACTVP
 70
    64
  9
$PLIMCHECK
 70
     0
  9
$PEXTMIN
 10
1.000000000000000E+20
 20
1.000000000000000E+20
 30
1.000000000000000E+20
  9
$PEXTMAX
 10
-1.000000000000000E+20
 20
-1.000000000000000E+20
 30
-1.000000000000000E+20
  9
$PLIMMIN
 10
0.0
 20
0.0
  9
$PLIMMAX
 10
12.0
 20
9.0
  9
$UNITMODE
 70
     0
  9
$VISRETAIN
 70
     1
  9
$PLINEGEN
 70
     0
  9
$PSLTSCALE
 70
     1
  0
ENDSEC
  0
SECTION
  2
TABLES
  0
TABLE
  2
VPORT
 70
     1
  0
VPORT
  2
*ACTIVE
 70
     0
 10
0.0
 20
0.0
 11
1.0
 21
1.0
 12
10.42990654205607
 22
4.5
 13
0.0
 23
0.0
 14
0.5
 24
0.5
 15
0.5
 25
0.5
 16
0.0
 26
0.0
 36
1.0
 17
0.0
 27
0.0
 37
0.0
 40
9.0
 41
1.972972972850329
 42
50.0
 43
0.0
 44
0.0
 50
0.0
 51
0.0
 71
     0
 72
   100
 73
     1
 74
     3
 75
     0
 76
     0
 77
     0
 78
     0
  0
ENDTAB
  0
TABLE
  2
LTYPE
 70
     2
  0
LTYPE
  2
CONTINUOUS
 70
     0
  3
Solid line
 72
    65
 73
     0
 40
0.0
  0
LTYPE
  2
CONTINUOUS2
 70
     0
  3
Solid Line
 72
    65
 73
     0
 40
0.0
  0
ENDTAB
  0
TABLE
  2
LAYER
 70
     2
  0
LAYER
  2
0
 70
     0
 62
     7
  6
CONTINUOUS
  0
LAYER
  2
IMPORTIEREN_-_2103161911_S
 70
     0
 62
     7
  6
CONTINUOUS
  0
ENDTAB
  0
TABLE
  2
STYLE
 70
     1
  0
STYLE
  2
STANDARD
 70
     0
 40
0.0
 41
1.0
 50
0.0
 71
     0
 42
0.2
  3
txt
  4

  0
ENDTAB
  0
TABLE
  2
VIEW
 70
     0
  0
ENDTAB
  0
TABLE
  2
UCS
 70
     0
  0
ENDTAB
  0
TABLE
  2
APPID
 70
     1
  0
APPID
  2
ACAD
 70
     0
  0
ENDTAB
  0
TABLE
  2
DIMSTYLE
 70
     1
  0
DIMSTYLE
  2
STANDARD
 70
     0
  3

  4

  5

  6

  7

 40
1.0
 41
0.18
 42
0.0625
 43
0.38
 44
0.18
 45
0.0
 46
0.0
 47
0.0
 48
0.0
140
0.18
141
0.09
142
0.0
143
25.4
144
1.0
145
0.0
146
1.0
147
0.09
 71
     0
 72
     0
 73
     1
 74
     1
 75
     0
 76
     0
 77
     0
 78
     0
170
     0
171
     2
172
     0
173
     0
174
     0
175
     0
176
     0
177
     0
178
     0
  0
ENDTAB
  0
ENDSEC
  0
SECTION
  2
BLOCKS
  0
BLOCK
  8
0
  2
$MODEL_SPACE
 70
     0
 10
0.0
 20
0.0
 30
0.0
  3
$MODEL_SPACE
  1

  0
ENDBLK
  5
21
  8
0
  0
BLOCK
 67
     1
  8
0
  2
$PAPER_SPACE
 70
     0
 10
0.0
 20
0.0
 30
0.0
  3
$PAPER_SPACE
  1

  0
ENDBLK
  5
1D
 67
     1
  8
0
  0
ENDSEC
  0
SECTION
  2
ENTITIES
  0
POLYLINE
  5
70
  8
IMPORTIEREN_-_2103161911_S
 66
     1
 10
0.0
 20
0.0
 30
0.0
  0
VERTEX
  5
79
  8
IMPORTIEREN_-_2103161911_S
 10
23.30841141624555
 20
29.4739900734092
 30
0.0
  0
VERTEX
  5
7A
  8
IMPORTIEREN_-_2103161911_S
 10
23.25920118008486
 20
29.48229103000392
 30
0.0
  0
VERTEX
  5
7B
  8
IMPORTIEREN_-_2103161911_S
 10
23.21549183146462
 20
29.50624350040994
 30
0.0
  0
VERTEX
  5
7C
  8
IMPORTIEREN_-_2103161911_S
 10
23.18396924955533
 20
29.54027742244847
 30
0.0
  0
VERTEX
  5
7D
  8
IMPORTIEREN_-_2103161911_S
 10
23.16773727030099
 20
29.57200752827271
 30
0.0
  0
VERTEX
  5
7E
  8
IMPORTIEREN_-_2103161911_S
 10
23.16078973054238
 20
29.59761417481178
 30
0.0
  0
VERTEX
  5
7F
  8
IMPORTIEREN_-_2103161911_S
 10
23.1592348049773
 20
29.60877234472719
 30
0.0
  0
VERTEX
  5
80
  8
IMPORTIEREN_-_2103161911_S
 10
23.15737160113295
 20
29.62248396107344
 30
0.0
  0
VERTEX
  5
81
  8
IMPORTIEREN_-_2103161911_S
 10
23.15627834108869
 20
29.67425365885089
 30
0.0
  0
VERTEX
  5
82
  8
IMPORTIEREN_-_2103161911_S
 10
23.15627834108869
 20
30.12365421548242
 30
0.0
  0
VERTEX
  5
83
  8
IMPORTIEREN_-_2103161911_S
 10
23.15637720486157
 20
30.76936354450686
 30
0.0
  0
VERTEX
  5
84
  8
IMPORTIEREN_-_2103161911_S
 10
23.1628680143285
 20
30.82137685731465
 30
0.0
  0
VERTEX
  5
85
  8
IMPORTIEREN_-_2103161911_S
 10
23.28155403487091
 20
31.26745084441677
 30
0.0
  0
VERTEX
  5
86
  8
IMPORTIEREN_-_2103161911_S
 10
23.3015803880504
 20
31.36992782091469
 30
0.0
  0
VERTEX
  5
87
  8
IMPORTIEREN_-_2103161911_S
 10
23.30822932187633
 20
31.47301165825049
 30
0.0
  0
VERTEX
  5
88
  8
IMPORTIEREN_-_2103161911_S
 10
23.30147697083819
 20
31.57572233602173
 30
0.0
  0
VERTEX
  5
89
  8
IMPORTIEREN_-_2103161911_S
 10
23.28129946942548
 20
31.67707983382593
 30
0.0
  0
VERTEX
  5
8A
  8
IMPORTIEREN_-_2103161911_S
 10
23.09774005533421
 20
32.37568954387859
 30
0.0
  0
VERTEX
  5
8B
  8
IMPORTIEREN_-_2103161911_S
 10
23.08040961572523
 20
32.41508850834706
 30
0.0
  0
VERTEX
  5
8C
  8
IMPORTIEREN_-_2103161911_S
 10
23.05186536764561
 20
32.4457964187253
 30
0.0
  0
VERTEX
  5
8D
  8
IMPORTIEREN_-_2103161911_S
 10
23.01484666628126
 20
32.46571417293691
 30
0.0
  0
VERTEX
  5
8E
  8
IMPORTIEREN_-_2103161911_S
 10
22.97209286681806
 20
32.47274266890548
 30
0.0
  0
VERTEX
  5
8F
  8
IMPORTIEREN_-_2103161911_S
 10
22.73423297531957
 20
32.47336509586574
 30
0.0
  0
VERTEX
  5
90
  8
IMPORTIEREN_-_2103161911_S
 10
22.73353569459255
 20
30.97282087719185
 30
0.0
  0
VERTEX
  5
91
  8
IMPORTIEREN_-_2103161911_S
 10
22.72950021165463
 20
30.93273298263582
 30
0.0
  0
VERTEX
  5
92
  8
IMPORTIEREN_-_2103161911_S
 10
22.71787060660057
 20
30.89535857122365
 30
0.0
  0
VERTEX
  5
93
  8
IMPORTIEREN_-_2103161911_S
 10
22.67504825382209
 20
30.83199459853947
 30
0.0
  0
VERTEX
  5
94
  8
IMPORTIEREN_-_2103161911_S
 10
22.61150708361331
 20
30.78921776055643
 30
0.0
  0
VERTEX
  5
95
  8
IMPORTIEREN_-_2103161911_S
 10
22.57397895677138
 20
30.77757726752067
 30
0.0
  0
VERTEX
  5
96
  8
IMPORTIEREN_-_2103161911_S
 10
22.53368554333045
 20
30.77351685869161
 30
0.0
  0
VERTEX
  5
97
  8
IMPORTIEREN_-_2103161911_S
 10
22.49339637506147
 20
30.77757575019238
 30
0.0
  0
VERTEX
  5
98
  8
IMPORTIEREN_-_2103161911_S
 10
22.45587427962849
 20
30.78920562193007
 30
0.0
  0
VERTEX
  5
99
  8
IMPORTIEREN_-_2103161911_S
 10
22.39236444298081
 20
30.83189748952859
 30
0.0
  0
VERTEX
  5
9A
  8
IMPORTIEREN_-_2103161911_S
 10
22.34962230480806
 20
30.89503082831193
 30
0.0
  0
VERTEX
  5
9B
  8
IMPORTIEREN_-_2103161911_S
 10
22.33805983246872
 20
30.93221253903063
 30
0.0
  0
VERTEX
  5
9C
  8
IMPORTIEREN_-_2103161911_S
 10
22.33411413653084
 20
30.97204400510481
 30
0.0
  0
VERTEX
  5
9D
  8
IMPORTIEREN_-_2103161911_S
 10
22.33368958508035
 20
32.47258822377876
 30
0.0
  0
VERTEX
  5
9E
  8
IMPORTIEREN_-_2103161911_S
 10
22.09792778976623
 20
32.47274266890548
 30
0.0
  0
VERTEX
  5
9F
  8
IMPORTIEREN_-_2103161911_S
 10
22.05636996395868
 20
32.46567712878908
 30
0.0
  0
VERTEX
  5
A0
  8
IMPORTIEREN_-_2103161911_S
 10
22.01983717193485
 20
32.4455000655427
 30
0.0
  0
VERTEX
  5
A1
  8
IMPORTIEREN_-_2103161911_S
 10
21.99115000202408
 20
32.41408831635577
 30
0.0
  0
VERTEX
  5
A2
  8
IMPORTIEREN_-_2103161911_S
 10
21.97312904255571
 20
32.37331871841775
 30
0.0
  0
VERTEX
  5
A3
  8
IMPORTIEREN_-_2103161911_S
 10
21.78956962846453
 20
31.67470900836508
 30
0.0
  0
VERTEX
  5
A4
  8
IMPORTIEREN_-_2103161911_S
 10
21.77010330810778
 20
31.57472214403043
 30
0.0
  0
VERTEX
  5
A5
  8
IMPORTIEREN_-_2103161911_S
 10
21.76362046171917
 20
31.47271530506789
 30
0.0
  0
VERTEX
  5
A6
  8
IMPORTIEREN_-_2103161911_S
 10
21.77012642365601
 20
31.36989077676686
 30
0.0
  0
VERTEX
  5
A7
  8
IMPORTIEREN_-_2103161911_S
 10
21.78962652827556
 20
31.26745084441677
 30
0.0
  0
VERTEX
  5
A8
  8
IMPORTIEREN_-_2103161911_S
 10
21.90198785560409
 20
30.82165458908594
 30
0.0
  0
VERTEX
  5
A9
  8
IMPORTIEREN_-_2103161911_S
 10
21.9087588534282
 20
30.76964127627798
 30
0.0
  0
VERTEX
  5
AA
  8
IMPORTIEREN_-_2103161911_S
 10
21.90859945100087
 20
30.12365421548242
 30
0.0
  0
VERTEX
  5
AB
  8
IMPORTIEREN_-_2103161911_S
 10
21.90859945100087
 20
29.67425365885089
 30
0.0
  0
VERTEX
  5
AC
  8
IMPORTIEREN_-_2103161911_S
 10
21.9087588534282
 20
29.62248396107344
 30
0.0
  0
VERTEX
  5
AD
  8
IMPORTIEREN_-_2103161911_S
 10
21.90814831205549
 20
29.60877234472719
 30
0.0
  0
VERTEX
  5
AE
  8
IMPORTIEREN_-_2103161911_S
 10
21.90355571759167
 20
29.58419429498355
 30
0.0
  0
VERTEX
  5
AF
  8
IMPORTIEREN_-_2103161911_S
 10
21.89037343760799
 20
29.55170627573114
 30
0.0
  0
VERTEX
  5
B0
  8
IMPORTIEREN_-_2103161911_S
 10
21.86819544705372
 20
29.52119725265248
 30
0.0
  0
VERTEX
  5
B1
  8
IMPORTIEREN_-_2103161911_S
 10
21.83809244902585
 20
29.49655905104936
 30
0.0
  0
VERTEX
  5
B2
  8
IMPORTIEREN_-_2103161911_S
 10
21.79785085509903
 20
29.47911501182853
 30
0.0
  0
VERTEX
  5
B3
  8
IMPORTIEREN_-_2103161911_S
 10
21.7589717007873
 20
29.4739900734092
 30
0.0
  0
SEQEND
  5
D8
  8
IMPORTIEREN_-_2103161911_S
  0
POLYLINE
  5
71
  8
IMPORTIEREN_-_2103161911_S
 66
     1
 10
0.0
 20
0.0
 30
0.0
  0
VERTEX
  5
B4
  8
IMPORTIEREN_-_2103161911_S
 10
44.71331145727119
 20
28.04869911566353
 30
0.0
  0
VERTEX
  5
B5
  8
IMPORTIEREN_-_2103161911_S
 10
44.72198363029043
 20
28.04895207892088
 30
0.0
  0
VERTEX
  5
B6
  8
IMPORTIEREN_-_2103161911_S
 10
44.74632220442419
 20
28.05225228955328
 30
0.0
  0
VERTEX
  5
B7
  8
IMPORTIEREN_-_2103161911_S
 10
44.78035631775191
 20
28.06419160330597
 30
0.0
  0
VERTEX
  5
B8
  8
IMPORTIEREN_-_2103161911_S
 10
44.8121984188741
 20
28.08524008656324
 30
0.0
  0
VERTEX
  5
B9
  8
IMPORTIEREN_-_2103161911_S
 10
44.83790992754776
 20
28.11386092741083
 30
0.0
  0
VERTEX
  5
BA
  8
IMPORTIEREN_-_2103161911_S
 10
44.84895790843255
 20
28.13248971817675
 30
0.0
  0
VERTEX
  5
BB
  8
IMPORTIEREN_-_2103161911_S
 10
44.86067971302128
 20
28.16683476105069
 30
0.0
  0
VERTEX
  5
BC
  8
IMPORTIEREN_-_2103161911_S
 10
44.91424869747769
 20
28.26869001136195
 30
0.0
  0
VERTEX
  5
BD
  8
IMPORTIEREN_-_2103161911_S
 10
44.9498786475156
 20
28.33073535752836
 30
0.0
  0
VERTEX
  5
BE
  8
IMPORTIEREN_-_2103161911_S
 10
44.99311065298529
 20
28.386190514971
 30
0.0
  0
VERTEX
  5
BF
  8
IMPORTIEREN_-_2103161911_S
 10
45.04307903890616
 20
28.43453704064578
 30
0.0
  0
VERTEX
  5
C0
  8
IMPORTIEREN_-_2103161911_S
 10
45.09891813029763
 20
28.47525649150862
 30
0.0
  0
VERTEX
  5
C1
  8
IMPORTIEREN_-_2103161911_S
 10
45.15976225217912
 20
28.50783042451544
 30
0.0
  0
VERTEX
  5
C2
  8
IMPORTIEREN_-_2103161911_S
 10
45.22474572957005
 20
28.53174039662214
 30
0.0
  0
VERTEX
  5
C3
  8
IMPORTIEREN_-_2103161911_S
 10
45.29300288748983
 20
28.54646796478465
 30
0.0
  0
VERTEX
  5
C4
  8
IMPORTIEREN_-_2103161911_S
 10
45.36366805095787
 20
28.55149468595888
 30
0.0
  0
VERTEX
  5
C5
  8
IMPORTIEREN_-_2103161911_S
 10
46.00804505732566
 20
28.55150397484437
 30
0.0
  0
VERTEX
  5
C6
  8
IMPORTIEREN_-_2103161911_S
 10
46.06127111364702
 20
28.55150397484437
 30
0.0
  0
VERTEX
  5
C7
  8
IMPORTIEREN_-_2103161911_S
 10
46.50483963184155
 20
28.55150397484437
 30
0.0
  0
VERTEX
  5
C8
  8
IMPORTIEREN_-_2103161911_S
 10
46.91292411248838
 20
28.55150397484437
 30
0.0
  0
VERTEX
  5
C9
  8
IMPORTIEREN_-_2103161911_S
 10
47.61080693234032
 20
28.55150397484437
 30
0.0
  0
VERTEX
  5
CA
  8
IMPORTIEREN_-_2103161911_S
 10
47.71134503872531
 20
28.55150397484437
 30
0.0
  0
VERTEX
  5
CB
  8
IMPORTIEREN_-_2103161911_S
 10
47.71134503872531
 20
28.24987762312338
 30
0.0
  0
VERTEX
  5
CC
  8
IMPORTIEREN_-_2103161911_S
 10
47.61080693234032
 20
28.24987762312338
 30
0.0
  0
VERTEX
  5
CD
  8
IMPORTIEREN_-_2103161911_S
 10
46.91292411248838
 20
28.24987762312338
 30
0.0
  0
VERTEX
  5
CE
  8
IMPORTIEREN_-_2103161911_S
 10
46.50483963184155
 20
28.24987762312338
 30
0.0
  0
VERTEX
  5
CF
  8
IMPORTIEREN_-_2103161911_S
 10
46.06127111364702
 20
28.24987762312338
 30
0.0
  0
VERTEX
  5
D0
  8
IMPORTIEREN_-_2103161911_S
 10
46.00804505732566
 20
28.24987762312338
 30
0.0
  0
VERTEX
  5
D1
  8
IMPORTIEREN_-_2103161911_S
 10
45.36180183615846
 20
28.249715309956
 30
0.0
  0
VERTEX
  5
D2
  8
IMPORTIEREN_-_2103161911_S
 10
45.30524609773984
 20
28.24173640318224
 30
0.0
  0
VERTEX
  5
D3
  8
IMPORTIEREN_-_2103161911_S
 10
45.25440241169937
 20
28.21919724491286
 30
0.0
  0
VERTEX
  5
D4
  8
IMPORTIEREN_-_2103161911_S
 10
45.21187235044279
 20
28.18382897359908
 30
0.0
  0
VERTEX
  5
D5
  8
IMPORTIEREN_-_2103161911_S
 10
45.18025748637577
 20
28.1373627276921
 30
0.0
  0
VERTEX
  5
D6
  8
IMPORTIEREN_-_2103161911_S
 10
45.1149940146787
 20
28.00148033586538
 30
0.0
  0
VERTEX
  5
D7
  8
IMPORTIEREN_-_2103161911_S
 10
45.09725199590486
 20
27.97191030457577
 30
0.0
  0
SEQEND
  5
D9
  8
IMPORTIEREN_-_2103161911_S
  0
ENDSEC
  0
EOF
